%TF.GenerationSoftware,KiCad,Pcbnew,8.0.6*%
%TF.CreationDate,2025-09-01T21:23:37+02:00*%
%TF.ProjectId,JANKO_KICAD_5,4a414e4b-4f5f-44b4-9943-41445f352e6b,rev?*%
%TF.SameCoordinates,Original*%
%TF.FileFunction,Soldermask,Bot*%
%TF.FilePolarity,Negative*%
%FSLAX46Y46*%
G04 Gerber Fmt 4.6, Leading zero omitted, Abs format (unit mm)*
G04 Created by KiCad (PCBNEW 8.0.6) date 2025-09-01 21:23:37*
%MOMM*%
%LPD*%
G01*
G04 APERTURE LIST*
G04 Aperture macros list*
%AMRoundRect*
0 Rectangle with rounded corners*
0 $1 Rounding radius*
0 $2 $3 $4 $5 $6 $7 $8 $9 X,Y pos of 4 corners*
0 Add a 4 corners polygon primitive as box body*
4,1,4,$2,$3,$4,$5,$6,$7,$8,$9,$2,$3,0*
0 Add four circle primitives for the rounded corners*
1,1,$1+$1,$2,$3*
1,1,$1+$1,$4,$5*
1,1,$1+$1,$6,$7*
1,1,$1+$1,$8,$9*
0 Add four rect primitives between the rounded corners*
20,1,$1+$1,$2,$3,$4,$5,0*
20,1,$1+$1,$4,$5,$6,$7,0*
20,1,$1+$1,$6,$7,$8,$9,0*
20,1,$1+$1,$8,$9,$2,$3,0*%
G04 Aperture macros list end*
%ADD10C,0.100000*%
%ADD11C,3.500000*%
%ADD12RoundRect,0.102000X-0.900000X-0.410000X0.900000X-0.410000X0.900000X0.410000X-0.900000X0.410000X0*%
%ADD13R,1.750000X1.750000*%
%ADD14C,1.750000*%
%ADD15C,1.600000*%
%ADD16R,1.600000X1.600000*%
%ADD17C,1.300000*%
%ADD18C,2.050000*%
%ADD19C,2.690000*%
%ADD20C,2.120000*%
%ADD21R,2.800000X2.800000*%
%ADD22C,3.225000*%
%ADD23C,2.800000*%
%ADD24C,3.135000*%
%ADD25C,1.200000*%
%ADD26R,2.500000X2.500000*%
%ADD27C,2.500000*%
%ADD28RoundRect,0.102000X0.900000X0.410000X-0.900000X0.410000X-0.900000X-0.410000X0.900000X-0.410000X0*%
%ADD29R,1.635000X1.635000*%
%ADD30C,1.635000*%
%ADD31RoundRect,0.225000X0.225000X0.250000X-0.225000X0.250000X-0.225000X-0.250000X0.225000X-0.250000X0*%
%ADD32RoundRect,0.225000X-0.225000X-0.250000X0.225000X-0.250000X0.225000X0.250000X-0.225000X0.250000X0*%
%ADD33R,1.250000X0.700000*%
%ADD34RoundRect,0.225000X0.250000X-0.225000X0.250000X0.225000X-0.250000X0.225000X-0.250000X-0.225000X0*%
%ADD35RoundRect,0.250000X-0.475000X0.250000X-0.475000X-0.250000X0.475000X-0.250000X0.475000X0.250000X0*%
%ADD36RoundRect,0.200000X-0.275000X0.200000X-0.275000X-0.200000X0.275000X-0.200000X0.275000X0.200000X0*%
%ADD37RoundRect,0.225000X-0.250000X0.225000X-0.250000X-0.225000X0.250000X-0.225000X0.250000X0.225000X0*%
%ADD38RoundRect,0.200000X0.200000X0.275000X-0.200000X0.275000X-0.200000X-0.275000X0.200000X-0.275000X0*%
%ADD39R,0.650000X1.950000*%
%ADD40R,0.900000X0.300000*%
%ADD41R,0.300000X0.900000*%
%ADD42R,2.150000X2.150000*%
%ADD43RoundRect,0.200000X-0.200000X-0.275000X0.200000X-0.275000X0.200000X0.275000X-0.200000X0.275000X0*%
%ADD44RoundRect,0.250000X0.475000X-0.250000X0.475000X0.250000X-0.475000X0.250000X-0.475000X-0.250000X0*%
%ADD45RoundRect,0.200000X0.275000X-0.200000X0.275000X0.200000X-0.275000X0.200000X-0.275000X-0.200000X0*%
%ADD46O,1.200000X2.000000*%
%ADD47O,1.200000X1.800000*%
%ADD48R,0.300000X1.300000*%
%ADD49R,0.600000X1.200000*%
%ADD50R,1.475000X0.450000*%
%ADD51R,1.406500X3.499000*%
%ADD52R,1.150000X1.800000*%
%ADD53R,1.700000X1.250000*%
%ADD54R,0.850000X0.250000*%
%ADD55R,0.250000X0.850000*%
%ADD56R,1.700000X2.700000*%
%ADD57R,2.150000X2.200000*%
G04 APERTURE END LIST*
D10*
X500000Y99500000D02*
X5500000Y99500000D01*
X5500000Y93750000D01*
X500000Y93750000D01*
X500000Y99500000D01*
G36*
X500000Y99500000D02*
G01*
X5500000Y99500000D01*
X5500000Y93750000D01*
X500000Y93750000D01*
X500000Y99500000D01*
G37*
X557500000Y98500000D02*
X568500000Y98500000D01*
X568500000Y91000000D01*
X557500000Y91000000D01*
X557500000Y98500000D01*
G36*
X557500000Y98500000D02*
G01*
X568500000Y98500000D01*
X568500000Y91000000D01*
X557500000Y91000000D01*
X557500000Y98500000D01*
G37*
X562500000Y21750000D02*
X569500000Y21750000D01*
X569500000Y16000000D01*
X562500000Y16000000D01*
X562500000Y21750000D01*
G36*
X562500000Y21750000D02*
G01*
X569500000Y21750000D01*
X569500000Y16000000D01*
X562500000Y16000000D01*
X562500000Y21750000D01*
G37*
X171500000Y99250000D02*
X192750000Y99250000D01*
X192750000Y94500000D01*
X171500000Y94500000D01*
X171500000Y99250000D01*
G36*
X171500000Y99250000D02*
G01*
X192750000Y99250000D01*
X192750000Y94500000D01*
X171500000Y94500000D01*
X171500000Y99250000D01*
G37*
X750000Y60000000D02*
X7750000Y60000000D01*
X7750000Y54250000D01*
X750000Y54250000D01*
X750000Y60000000D01*
G36*
X750000Y60000000D02*
G01*
X7750000Y60000000D01*
X7750000Y54250000D01*
X750000Y54250000D01*
X750000Y60000000D01*
G37*
X562500000Y60000000D02*
X569500000Y60000000D01*
X569500000Y54250000D01*
X562500000Y54250000D01*
X562500000Y60000000D01*
G36*
X562500000Y60000000D02*
G01*
X569500000Y60000000D01*
X569500000Y54250000D01*
X562500000Y54250000D01*
X562500000Y60000000D01*
G37*
X750000Y21750000D02*
X7750000Y21750000D01*
X7750000Y16000000D01*
X750000Y16000000D01*
X750000Y21750000D01*
G36*
X750000Y21750000D02*
G01*
X7750000Y21750000D01*
X7750000Y16000000D01*
X750000Y16000000D01*
X750000Y21750000D01*
G37*
D11*
%TO.C,H133*%
X532000000Y19000000D03*
%TD*%
D12*
%TO.C,D3*%
X373900000Y82250000D03*
X373900000Y80750000D03*
X379100000Y80750000D03*
X379100000Y82250000D03*
%TD*%
%TO.C,D4*%
X393900000Y82250000D03*
X393900000Y80750000D03*
X399100000Y80750000D03*
X399100000Y82250000D03*
%TD*%
D11*
%TO.C,H120*%
X532000000Y95000000D03*
%TD*%
%TO.C,H129*%
X38000000Y57000000D03*
%TD*%
%TO.C,H13*%
X361000000Y95000000D03*
%TD*%
D13*
%TO.C,S4*%
X31040000Y94540000D03*
D14*
X31040000Y92000000D03*
X31040000Y89460000D03*
X25960000Y94540000D03*
X25960000Y92000000D03*
X25960000Y89460000D03*
%TD*%
D11*
%TO.C,H132*%
X532000000Y57000000D03*
%TD*%
%TO.C,H128*%
X209000000Y95000000D03*
%TD*%
%TO.C,H124*%
X209000000Y81000000D03*
%TD*%
%TO.C,H134*%
X38000000Y19000000D03*
%TD*%
%TO.C,H9*%
X361000000Y81000000D03*
%TD*%
%TO.C,H135*%
X209000000Y54500000D03*
%TD*%
%TO.C,H130*%
X209000000Y19000000D03*
%TD*%
D12*
%TO.C,D6*%
X430900000Y82250000D03*
X430900000Y80750000D03*
X436100000Y80750000D03*
X436100000Y82250000D03*
%TD*%
%TO.C,D7*%
X440900000Y82250000D03*
X440900000Y80750000D03*
X446100000Y80750000D03*
X446100000Y82250000D03*
%TD*%
%TO.C,D5*%
X420900000Y82250000D03*
X420900000Y80750000D03*
X426100000Y80750000D03*
X426100000Y82250000D03*
%TD*%
D11*
%TO.C,H137*%
X361000000Y54500000D03*
%TD*%
D15*
%TO.C,C3*%
X10729999Y83000000D03*
X13270001Y83000000D03*
%TD*%
D11*
%TO.C,H138*%
X361000000Y16500000D03*
%TD*%
D16*
%TO.C,U3*%
X314210000Y94620000D03*
D15*
X311670000Y94620000D03*
X309130000Y94620000D03*
X306590000Y94620000D03*
X304050000Y94620000D03*
X301510000Y94620000D03*
X298970000Y94620000D03*
X296430000Y94620000D03*
X293890000Y94620000D03*
X291350000Y94620000D03*
X288810000Y94620000D03*
X286270000Y94620000D03*
X283730000Y94620000D03*
X281190000Y94620000D03*
X278650000Y94620000D03*
X276110000Y94620000D03*
X273570000Y94620000D03*
X271030000Y94620000D03*
X268490000Y94620000D03*
X265950000Y94620000D03*
X263410000Y94620000D03*
X260870000Y94620000D03*
X258330000Y94620000D03*
X255790000Y94620000D03*
X255790000Y79380000D03*
X258330000Y79380000D03*
X260870000Y79380000D03*
X263410000Y79380000D03*
X265950000Y79380000D03*
X268490000Y79380000D03*
X271030000Y79380000D03*
X273570000Y79380000D03*
X276110000Y79380000D03*
X278650000Y79380000D03*
X281190000Y79380000D03*
X283730000Y79380000D03*
X286270000Y79380000D03*
X288810000Y79380000D03*
X291350000Y79380000D03*
X293890000Y79380000D03*
X296430000Y79380000D03*
X298970000Y79380000D03*
X301510000Y79380000D03*
X304050000Y79380000D03*
X306590000Y79380000D03*
X309130000Y79380000D03*
X311670000Y79380000D03*
X314210000Y79380000D03*
X311670000Y81920000D03*
D16*
X307910800Y91569200D03*
D15*
X305370800Y91569200D03*
X302830800Y91569200D03*
X300290800Y91569200D03*
X297750800Y91569200D03*
D17*
X313480000Y85730000D03*
X313480000Y88270000D03*
%TD*%
D18*
%TO.C,U2*%
X480500000Y88000000D03*
D19*
X485000000Y88000000D03*
%TD*%
D20*
%TO.C,J1*%
X13692000Y96000000D03*
D21*
X10492000Y89700000D03*
D22*
X18992000Y89700000D03*
D23*
X13692000Y89700000D03*
D24*
X10092000Y97000000D03*
X19892000Y97000000D03*
%TD*%
D25*
%TO.C,J2*%
X511500000Y95380000D03*
X511500000Y88380000D03*
D26*
X511500000Y85000000D03*
D27*
X514700000Y93880000D03*
X508650000Y85880000D03*
X514350000Y85880000D03*
X508300000Y93880000D03*
%TD*%
D28*
%TO.C,D2*%
X31100000Y83750000D03*
X31100000Y85250000D03*
X25900000Y85250000D03*
X25900000Y83750000D03*
%TD*%
D11*
%TO.C,H1*%
X38000000Y95000000D03*
%TD*%
D29*
%TO.C,S1*%
X436040000Y88000000D03*
D30*
X433500000Y88000000D03*
X430960000Y88000000D03*
%TD*%
D31*
%TO.C,C147*%
X200500000Y50500000D03*
X198950000Y50500000D03*
%TD*%
D32*
%TO.C,C1*%
X18700000Y81750000D03*
X20250000Y81750000D03*
%TD*%
%TO.C,C187*%
X46500000Y6500000D03*
X48050000Y6500000D03*
%TD*%
D15*
%TO.C,H31*%
X99420000Y9500000D03*
X109580000Y9500000D03*
D33*
X103500000Y8550000D03*
X103500000Y10450000D03*
X105500000Y9500000D03*
%TD*%
D34*
%TO.C,C106*%
X235500000Y32725000D03*
X235500000Y34275000D03*
%TD*%
D15*
%TO.C,H80*%
X346420000Y9500000D03*
X356580000Y9500000D03*
D33*
X350500000Y8550000D03*
X350500000Y10450000D03*
X352500000Y9500000D03*
%TD*%
D34*
%TO.C,C201*%
X313500000Y32725000D03*
X313500000Y34275000D03*
%TD*%
D15*
%TO.C,H43*%
X175420000Y28500000D03*
X185580000Y28500000D03*
D33*
X179500000Y27550000D03*
X179500000Y29450000D03*
X181500000Y28500000D03*
%TD*%
D32*
%TO.C,C50*%
X521500000Y25500000D03*
X523050000Y25500000D03*
%TD*%
D35*
%TO.C,C190*%
X369250000Y82200000D03*
X369250000Y80300000D03*
%TD*%
D15*
%TO.C,H94*%
X384420000Y9500000D03*
X394580000Y9500000D03*
D33*
X388500000Y8550000D03*
X388500000Y10450000D03*
X390500000Y9500000D03*
%TD*%
D15*
%TO.C,H45*%
X137420000Y9500000D03*
X147580000Y9500000D03*
D33*
X141500000Y8550000D03*
X141500000Y10450000D03*
X143500000Y9500000D03*
%TD*%
D32*
%TO.C,C82*%
X369500000Y25500000D03*
X371050000Y25500000D03*
%TD*%
D36*
%TO.C,R8*%
X228000000Y79550000D03*
X228000000Y77900000D03*
%TD*%
%TO.C,R6*%
X228000000Y93825000D03*
X228000000Y92175000D03*
%TD*%
D34*
%TO.C,C198*%
X539500000Y32725000D03*
X539500000Y34275000D03*
%TD*%
%TO.C,C45*%
X538500000Y46500000D03*
X538500000Y48050000D03*
%TD*%
D32*
%TO.C,C100*%
X331500000Y6500000D03*
X333050000Y6500000D03*
%TD*%
D15*
%TO.C,H122*%
X536420000Y28500000D03*
X546580000Y28500000D03*
D33*
X540500000Y27550000D03*
X540500000Y29450000D03*
X542500000Y28500000D03*
%TD*%
D32*
%TO.C,C168*%
X103500000Y26000000D03*
X105050000Y26000000D03*
%TD*%
D34*
%TO.C,C21*%
X278300000Y74725000D03*
X278300000Y76275000D03*
%TD*%
D37*
%TO.C,C51*%
X464750000Y93525000D03*
X464750000Y91975000D03*
%TD*%
D32*
%TO.C,C137*%
X236500000Y25500000D03*
X238050000Y25500000D03*
%TD*%
%TO.C,C1u2*%
X95725000Y57750000D03*
X97275000Y57750000D03*
%TD*%
%TO.C,C65*%
X464500000Y25500000D03*
X466050000Y25500000D03*
%TD*%
D31*
%TO.C,C127*%
X276500000Y69500000D03*
X274950000Y69500000D03*
%TD*%
D32*
%TO.C,C216*%
X294725000Y76500000D03*
X296275000Y76500000D03*
%TD*%
D36*
%TO.C,R43*%
X307500000Y76575000D03*
X307500000Y74925000D03*
%TD*%
D15*
%TO.C,H6*%
X14580000Y47500000D03*
X4420000Y47500000D03*
D33*
X10500000Y48450000D03*
X10500000Y46550000D03*
X8500000Y47500000D03*
%TD*%
D15*
%TO.C,H67*%
X337580000Y66500000D03*
X327420000Y66500000D03*
D33*
X333500000Y67450000D03*
X333500000Y65550000D03*
X331500000Y66500000D03*
%TD*%
D15*
%TO.C,H92*%
X422420000Y28500000D03*
X432580000Y28500000D03*
D33*
X426500000Y27550000D03*
X426500000Y29450000D03*
X428500000Y28500000D03*
%TD*%
D32*
%TO.C,C170*%
X65500000Y25500000D03*
X67050000Y25500000D03*
%TD*%
D15*
%TO.C,H104*%
X508580000Y47500000D03*
X498420000Y47500000D03*
D33*
X504500000Y48450000D03*
X504500000Y46550000D03*
X502500000Y47500000D03*
%TD*%
D37*
%TO.C,C222*%
X288750000Y88025000D03*
X288750000Y86475000D03*
%TD*%
D32*
%TO.C,C169*%
X84500000Y25500000D03*
X86050000Y25500000D03*
%TD*%
%TO.C,C164*%
X106725000Y45000000D03*
X108275000Y45000000D03*
%TD*%
D15*
%TO.C,H48*%
X194420000Y9500000D03*
X204580000Y9500000D03*
D33*
X198500000Y8550000D03*
X198500000Y10450000D03*
X200500000Y9500000D03*
%TD*%
D15*
%TO.C,H14*%
X4420000Y9500000D03*
X14580000Y9500000D03*
D33*
X8500000Y8550000D03*
X8500000Y10450000D03*
X10500000Y9500000D03*
%TD*%
D15*
%TO.C,H47*%
X175420000Y9500000D03*
X185580000Y9500000D03*
D33*
X179500000Y8550000D03*
X179500000Y10450000D03*
X181500000Y9500000D03*
%TD*%
D32*
%TO.C,C167*%
X122500000Y25500000D03*
X124050000Y25500000D03*
%TD*%
D38*
%TO.C,R18*%
X226325000Y88250000D03*
X224675000Y88250000D03*
%TD*%
D39*
%TO.C,MUX4*%
X240015000Y42725000D03*
X241285000Y42725000D03*
X242555000Y42725000D03*
X243825000Y42725000D03*
X245095000Y42725000D03*
X246365000Y42725000D03*
X247635000Y42725000D03*
X248905000Y42725000D03*
X250175000Y42725000D03*
X251445000Y42725000D03*
X252715000Y42725000D03*
X253985000Y42725000D03*
X253985000Y33275000D03*
X252715000Y33275000D03*
X251445000Y33275000D03*
X250175000Y33275000D03*
X248905000Y33275000D03*
X247635000Y33275000D03*
X246365000Y33275000D03*
X245095000Y33275000D03*
X243825000Y33275000D03*
X242555000Y33275000D03*
X241285000Y33275000D03*
X240015000Y33275000D03*
%TD*%
D34*
%TO.C,C114*%
X492000000Y83975000D03*
X492000000Y85525000D03*
%TD*%
%TO.C,C211*%
X520500000Y92225000D03*
X520500000Y93775000D03*
%TD*%
D39*
%TO.C,MUX7*%
X468015000Y42725000D03*
X469285000Y42725000D03*
X470555000Y42725000D03*
X471825000Y42725000D03*
X473095000Y42725000D03*
X474365000Y42725000D03*
X475635000Y42725000D03*
X476905000Y42725000D03*
X478175000Y42725000D03*
X479445000Y42725000D03*
X480715000Y42725000D03*
X481985000Y42725000D03*
X481985000Y33275000D03*
X480715000Y33275000D03*
X479445000Y33275000D03*
X478175000Y33275000D03*
X476905000Y33275000D03*
X475635000Y33275000D03*
X474365000Y33275000D03*
X473095000Y33275000D03*
X471825000Y33275000D03*
X470555000Y33275000D03*
X469285000Y33275000D03*
X468015000Y33275000D03*
%TD*%
D15*
%TO.C,H89*%
X365420000Y28500000D03*
X375580000Y28500000D03*
D33*
X369500000Y27550000D03*
X369500000Y29450000D03*
X371500000Y28500000D03*
%TD*%
D32*
%TO.C,C121*%
X551725000Y55750000D03*
X553275000Y55750000D03*
%TD*%
D35*
%TO.C,C117*%
X360500000Y88950000D03*
X360500000Y87050000D03*
%TD*%
D15*
%TO.C,H99*%
X489580000Y66500000D03*
X479420000Y66500000D03*
D33*
X485500000Y67450000D03*
X485500000Y65550000D03*
X483500000Y66500000D03*
%TD*%
D40*
%TO.C,IC3*%
X224881250Y93000000D03*
X224881250Y92500000D03*
X224881250Y92000000D03*
X224881250Y91500000D03*
X224881250Y91000000D03*
D41*
X224181250Y90300000D03*
X223681250Y90300000D03*
X223181250Y90300000D03*
X222681250Y90300000D03*
X222181250Y90300000D03*
D40*
X221481250Y91000000D03*
X221481250Y91500000D03*
X221481250Y92000000D03*
X221481250Y92500000D03*
X221481250Y93000000D03*
D41*
X222181250Y93700000D03*
X222681250Y93700000D03*
X223181250Y93700000D03*
X223681250Y93700000D03*
X224181250Y93700000D03*
D42*
X223181250Y92000000D03*
%TD*%
D31*
%TO.C,C221*%
X390025000Y86500000D03*
X388475000Y86500000D03*
%TD*%
D43*
%TO.C,R17*%
X266925000Y74000000D03*
X268575000Y74000000D03*
%TD*%
D15*
%TO.C,H121*%
X517420000Y28500000D03*
X527580000Y28500000D03*
D33*
X521500000Y27550000D03*
X521500000Y29450000D03*
X523500000Y28500000D03*
%TD*%
D32*
%TO.C,C54*%
X521500000Y6500000D03*
X523050000Y6500000D03*
%TD*%
%TO.C,C210*%
X513225000Y78500000D03*
X514775000Y78500000D03*
%TD*%
%TO.C,C120*%
X475725000Y53750000D03*
X477275000Y53750000D03*
%TD*%
%TO.C,C81*%
X388500000Y25500000D03*
X390050000Y25500000D03*
%TD*%
D37*
%TO.C,C32*%
X28500000Y44775000D03*
X28500000Y43225000D03*
%TD*%
D34*
%TO.C,C165*%
X82500000Y46500000D03*
X82500000Y48050000D03*
%TD*%
D32*
%TO.C,C99*%
X350500000Y6500000D03*
X352050000Y6500000D03*
%TD*%
D44*
%TO.C,C11*%
X218000000Y81275000D03*
X218000000Y83175000D03*
%TD*%
D32*
%TO.C,C1u4*%
X247725000Y57750000D03*
X249275000Y57750000D03*
%TD*%
D45*
%TO.C,R32*%
X425000000Y88175000D03*
X425000000Y89825000D03*
%TD*%
D32*
%TO.C,C186*%
X20700000Y83750000D03*
X22250000Y83750000D03*
%TD*%
%TO.C,C119*%
X475725000Y55750000D03*
X477275000Y55750000D03*
%TD*%
D15*
%TO.C,H11*%
X23420000Y28500000D03*
X33580000Y28500000D03*
D33*
X27500000Y27550000D03*
X27500000Y29450000D03*
X29500000Y28500000D03*
%TD*%
D34*
%TO.C,C37*%
X81500000Y32725000D03*
X81500000Y34275000D03*
%TD*%
D32*
%TO.C,C173*%
X84500000Y6500000D03*
X86050000Y6500000D03*
%TD*%
%TO.C,C29*%
X247725000Y55750000D03*
X249275000Y55750000D03*
%TD*%
D31*
%TO.C,C176*%
X29500000Y69500000D03*
X27950000Y69500000D03*
%TD*%
D15*
%TO.C,H70*%
X318580000Y47500000D03*
X308420000Y47500000D03*
D33*
X314500000Y48450000D03*
X314500000Y46550000D03*
X312500000Y47500000D03*
%TD*%
D43*
%TO.C,R40*%
X513175000Y81000000D03*
X514825000Y81000000D03*
%TD*%
D31*
%TO.C,C6*%
X559275000Y31000000D03*
X557725000Y31000000D03*
%TD*%
D32*
%TO.C,C48*%
X559500000Y25500000D03*
X561050000Y25500000D03*
%TD*%
D15*
%TO.C,H107*%
X479420000Y28500000D03*
X489580000Y28500000D03*
D33*
X483500000Y27550000D03*
X483500000Y29450000D03*
X485500000Y28500000D03*
%TD*%
D46*
%TO.C,HOST1*%
X372175000Y93245500D03*
X380825000Y93245500D03*
D47*
X380825000Y97425500D03*
X372175000Y97425500D03*
D48*
X373150000Y92477500D03*
X373950000Y92477500D03*
X375250000Y92477500D03*
X376250000Y92477500D03*
X376750000Y92477500D03*
X377749500Y92477500D03*
X379050000Y92477500D03*
X379850000Y92477500D03*
X379550000Y92477500D03*
X378750000Y92477500D03*
X378250000Y92477500D03*
X377250000Y92477500D03*
X375750000Y92477500D03*
X374750000Y92477500D03*
X374250000Y92477500D03*
X373450000Y92477500D03*
%TD*%
D31*
%TO.C,C41*%
X542500000Y69500000D03*
X540950000Y69500000D03*
%TD*%
%TO.C,C46*%
X523500000Y50500000D03*
X521950000Y50500000D03*
%TD*%
%TO.C,C55*%
X504500000Y69500000D03*
X502950000Y69500000D03*
%TD*%
%TO.C,C74*%
X371275000Y69500000D03*
X369725000Y69500000D03*
%TD*%
D15*
%TO.C,H24*%
X128580000Y47500000D03*
X118420000Y47500000D03*
D33*
X124500000Y48450000D03*
X124500000Y46550000D03*
X122500000Y47500000D03*
%TD*%
D32*
%TO.C,C140*%
X255500000Y6500000D03*
X257050000Y6500000D03*
%TD*%
%TO.C,C98*%
X293500000Y25500000D03*
X295050000Y25500000D03*
%TD*%
D37*
%TO.C,C116*%
X427500000Y89775000D03*
X427500000Y88225000D03*
%TD*%
D45*
%TO.C,R41*%
X518000000Y92175000D03*
X518000000Y93825000D03*
%TD*%
D38*
%TO.C,R1*%
X370325000Y91300000D03*
X368675000Y91300000D03*
%TD*%
D32*
%TO.C,C122*%
X551725000Y53750000D03*
X553275000Y53750000D03*
%TD*%
D34*
%TO.C,C202*%
X311500000Y32725000D03*
X311500000Y34275000D03*
%TD*%
D32*
%TO.C,C152*%
X179500000Y25500000D03*
X181050000Y25500000D03*
%TD*%
%TO.C,C79*%
X426500000Y25500000D03*
X428050000Y25500000D03*
%TD*%
D15*
%TO.C,H55*%
X251420000Y47500000D03*
X261580000Y47500000D03*
D33*
X255500000Y46550000D03*
X255500000Y48450000D03*
X257500000Y47500000D03*
%TD*%
D15*
%TO.C,H15*%
X23420000Y9500000D03*
X33580000Y9500000D03*
D33*
X27500000Y8550000D03*
X27500000Y10450000D03*
X29500000Y9500000D03*
%TD*%
D31*
%TO.C,C143*%
X200500000Y69500000D03*
X198950000Y69500000D03*
%TD*%
D15*
%TO.C,H46*%
X156420000Y9500000D03*
X166580000Y9500000D03*
D33*
X160500000Y8550000D03*
X160500000Y10450000D03*
X162500000Y9500000D03*
%TD*%
D32*
%TO.C,C66*%
X445500000Y25500000D03*
X447050000Y25500000D03*
%TD*%
%TO.C,C85*%
X388500000Y6500000D03*
X390050000Y6500000D03*
%TD*%
D43*
%TO.C,R26*%
X394175000Y90000000D03*
X395825000Y90000000D03*
%TD*%
D31*
%TO.C,C166*%
X67500000Y50500000D03*
X65950000Y50500000D03*
%TD*%
D15*
%TO.C,H10*%
X4420000Y28500000D03*
X14580000Y28500000D03*
D33*
X8500000Y27550000D03*
X8500000Y29450000D03*
X10500000Y28500000D03*
%TD*%
D43*
%TO.C,R37*%
X372175000Y84000000D03*
X373825000Y84000000D03*
%TD*%
D31*
%TO.C,C130*%
X219500000Y69500000D03*
X217950000Y69500000D03*
%TD*%
D49*
%TO.C,OPA4*%
X247700000Y49250000D03*
X246750000Y49250000D03*
X245800000Y49250000D03*
X245800000Y51750000D03*
X247700000Y51750000D03*
%TD*%
D15*
%TO.C,H51*%
X261580000Y66500000D03*
X251420000Y66500000D03*
D33*
X257500000Y67450000D03*
X257500000Y65550000D03*
X255500000Y66500000D03*
%TD*%
D15*
%TO.C,H74*%
X308420000Y28500000D03*
X318580000Y28500000D03*
D33*
X312500000Y27550000D03*
X312500000Y29450000D03*
X314500000Y28500000D03*
%TD*%
D32*
%TO.C,C171*%
X122500000Y6500000D03*
X124050000Y6500000D03*
%TD*%
D15*
%TO.C,H98*%
X470580000Y66500000D03*
X460420000Y66500000D03*
D33*
X466500000Y67450000D03*
X466500000Y65550000D03*
X464500000Y66500000D03*
%TD*%
D32*
%TO.C,C135*%
X274500000Y25500000D03*
X276050000Y25500000D03*
%TD*%
%TO.C,C156*%
X179500000Y6500000D03*
X181050000Y6500000D03*
%TD*%
D31*
%TO.C,C91*%
X352500000Y50500000D03*
X350950000Y50500000D03*
%TD*%
D37*
%TO.C,C5*%
X321000000Y80775000D03*
X321000000Y79225000D03*
%TD*%
D15*
%TO.C,H36*%
X204580000Y66500000D03*
X194420000Y66500000D03*
D33*
X200500000Y67450000D03*
X200500000Y65550000D03*
X198500000Y66500000D03*
%TD*%
D39*
%TO.C,MUX2*%
X88015000Y42725000D03*
X89285000Y42725000D03*
X90555000Y42725000D03*
X91825000Y42725000D03*
X93095000Y42725000D03*
X94365000Y42725000D03*
X95635000Y42725000D03*
X96905000Y42725000D03*
X98175000Y42725000D03*
X99445000Y42725000D03*
X100715000Y42725000D03*
X101985000Y42725000D03*
X101985000Y33275000D03*
X100715000Y33275000D03*
X99445000Y33275000D03*
X98175000Y33275000D03*
X96905000Y33275000D03*
X95635000Y33275000D03*
X94365000Y33275000D03*
X93095000Y33275000D03*
X91825000Y33275000D03*
X90555000Y33275000D03*
X89285000Y33275000D03*
X88015000Y33275000D03*
%TD*%
D32*
%TO.C,C24*%
X19725000Y55000000D03*
X21275000Y55000000D03*
%TD*%
D34*
%TO.C,C219*%
X269250000Y81725000D03*
X269250000Y83275000D03*
%TD*%
D15*
%TO.C,H77*%
X289420000Y9500000D03*
X299580000Y9500000D03*
D33*
X293500000Y8550000D03*
X293500000Y10450000D03*
X295500000Y9500000D03*
%TD*%
D15*
%TO.C,H58*%
X232420000Y28500000D03*
X242580000Y28500000D03*
D33*
X236500000Y27550000D03*
X236500000Y29450000D03*
X238500000Y28500000D03*
%TD*%
D15*
%TO.C,H82*%
X394580000Y66500000D03*
X384420000Y66500000D03*
D33*
X390500000Y67450000D03*
X390500000Y65550000D03*
X388500000Y66500000D03*
%TD*%
D31*
%TO.C,C145*%
X162500000Y69500000D03*
X160950000Y69500000D03*
%TD*%
D38*
%TO.C,R14*%
X260825000Y69500000D03*
X259175000Y69500000D03*
%TD*%
D49*
%TO.C,OPA3*%
X171700000Y49250000D03*
X170750000Y49250000D03*
X169800000Y49250000D03*
X169800000Y51750000D03*
X171700000Y51750000D03*
%TD*%
D34*
%TO.C,C178*%
X427500000Y84725000D03*
X427500000Y86275000D03*
%TD*%
%TO.C,C31*%
X28500000Y31450000D03*
X28500000Y33000000D03*
%TD*%
D31*
%TO.C,C88*%
X333500000Y69500000D03*
X331950000Y69500000D03*
%TD*%
D15*
%TO.C,H28*%
X118420000Y28500000D03*
X128580000Y28500000D03*
D33*
X122500000Y27550000D03*
X122500000Y29450000D03*
X124500000Y28500000D03*
%TD*%
D15*
%TO.C,H39*%
X175420000Y47500000D03*
X185580000Y47500000D03*
D33*
X179500000Y46550000D03*
X179500000Y48450000D03*
X181500000Y47500000D03*
%TD*%
D37*
%TO.C,C209*%
X290500000Y88025000D03*
X290500000Y86475000D03*
%TD*%
D15*
%TO.C,H112*%
X498420000Y9500000D03*
X508580000Y9500000D03*
D33*
X502500000Y8550000D03*
X502500000Y10450000D03*
X504500000Y9500000D03*
%TD*%
D32*
%TO.C,C28*%
X171725000Y53750000D03*
X173275000Y53750000D03*
%TD*%
D15*
%TO.C,H114*%
X546580000Y66500000D03*
X536420000Y66500000D03*
D33*
X542500000Y67450000D03*
X542500000Y65550000D03*
X540500000Y66500000D03*
%TD*%
D15*
%TO.C,H68*%
X356580000Y66500000D03*
X346420000Y66500000D03*
D33*
X352500000Y67450000D03*
X352500000Y65550000D03*
X350500000Y66500000D03*
%TD*%
D32*
%TO.C,C220*%
X264200000Y81750000D03*
X265750000Y81750000D03*
%TD*%
D34*
%TO.C,C10*%
X541500000Y39725000D03*
X541500000Y41275000D03*
%TD*%
%TO.C,C133*%
X234500000Y46500000D03*
X234500000Y48050000D03*
%TD*%
D36*
%TO.C,R42*%
X504500000Y86325000D03*
X504500000Y84675000D03*
%TD*%
D34*
%TO.C,C77*%
X386500000Y46450000D03*
X386500000Y48000000D03*
%TD*%
%TO.C,C18*%
X250500000Y74725000D03*
X250500000Y76275000D03*
%TD*%
D32*
%TO.C,C1u7*%
X475725000Y57750000D03*
X477275000Y57750000D03*
%TD*%
%TO.C,C213*%
X309225000Y76500000D03*
X310775000Y76500000D03*
%TD*%
D39*
%TO.C,MUX6*%
X392015000Y42725000D03*
X393285000Y42725000D03*
X394555000Y42725000D03*
X395825000Y42725000D03*
X397095000Y42725000D03*
X398365000Y42725000D03*
X399635000Y42725000D03*
X400905000Y42725000D03*
X402175000Y42725000D03*
X403445000Y42725000D03*
X404715000Y42725000D03*
X405985000Y42725000D03*
X405985000Y33275000D03*
X404715000Y33275000D03*
X403445000Y33275000D03*
X402175000Y33275000D03*
X400905000Y33275000D03*
X399635000Y33275000D03*
X398365000Y33275000D03*
X397095000Y33275000D03*
X395825000Y33275000D03*
X394555000Y33275000D03*
X393285000Y33275000D03*
X392015000Y33275000D03*
%TD*%
D15*
%TO.C,H29*%
X61420000Y9500000D03*
X71580000Y9500000D03*
D33*
X65500000Y8550000D03*
X65500000Y10450000D03*
X67500000Y9500000D03*
%TD*%
D34*
%TO.C,C9*%
X541500000Y34725000D03*
X541500000Y36275000D03*
%TD*%
D32*
%TO.C,C76*%
X410725000Y45000000D03*
X412275000Y45000000D03*
%TD*%
D15*
%TO.C,H37*%
X147580000Y47500000D03*
X137420000Y47500000D03*
D33*
X143500000Y48450000D03*
X143500000Y46550000D03*
X141500000Y47500000D03*
%TD*%
D15*
%TO.C,H25*%
X61420000Y28500000D03*
X71580000Y28500000D03*
D33*
X65500000Y27550000D03*
X65500000Y29450000D03*
X67500000Y28500000D03*
%TD*%
D31*
%TO.C,C162*%
X67500000Y69500000D03*
X65950000Y69500000D03*
%TD*%
D15*
%TO.C,H91*%
X403420000Y28500000D03*
X413580000Y28500000D03*
D33*
X407500000Y27550000D03*
X407500000Y29450000D03*
X409500000Y28500000D03*
%TD*%
D32*
%TO.C,C52*%
X559500000Y6500000D03*
X561050000Y6500000D03*
%TD*%
D38*
%TO.C,R7*%
X305575000Y87055000D03*
X303925000Y87055000D03*
%TD*%
D15*
%TO.C,H126*%
X536420000Y9500000D03*
X546580000Y9500000D03*
D33*
X540500000Y8550000D03*
X540500000Y10450000D03*
X542500000Y9500000D03*
%TD*%
D34*
%TO.C,C16*%
X254500000Y74725000D03*
X254500000Y76275000D03*
%TD*%
D15*
%TO.C,H106*%
X460420000Y28500000D03*
X470580000Y28500000D03*
D33*
X464500000Y27550000D03*
X464500000Y29450000D03*
X466500000Y28500000D03*
%TD*%
D40*
%TO.C,IC2*%
X224881250Y82225000D03*
X224881250Y81725000D03*
X224881250Y81225000D03*
X224881250Y80725000D03*
X224881250Y80225000D03*
D41*
X224181250Y79525000D03*
X223681250Y79525000D03*
X223181250Y79525000D03*
X222681250Y79525000D03*
X222181250Y79525000D03*
D40*
X221481250Y80225000D03*
X221481250Y80725000D03*
X221481250Y81225000D03*
X221481250Y81725000D03*
X221481250Y82225000D03*
D41*
X222181250Y82925000D03*
X222681250Y82925000D03*
X223181250Y82925000D03*
X223681250Y82925000D03*
X224181250Y82925000D03*
D42*
X223181250Y81225000D03*
%TD*%
D32*
%TO.C,C101*%
X312500000Y6500000D03*
X314050000Y6500000D03*
%TD*%
D49*
%TO.C,OPA1*%
X19700000Y47750000D03*
X18750000Y47750000D03*
X17800000Y47750000D03*
X17800000Y50250000D03*
X19700000Y50250000D03*
%TD*%
D31*
%TO.C,C144*%
X181500000Y69500000D03*
X179950000Y69500000D03*
%TD*%
D37*
%TO.C,C113*%
X317000000Y80775000D03*
X317000000Y79225000D03*
%TD*%
D15*
%TO.C,H60*%
X270420000Y28500000D03*
X280580000Y28500000D03*
D33*
X274500000Y27550000D03*
X274500000Y29450000D03*
X276500000Y28500000D03*
%TD*%
D15*
%TO.C,H100*%
X508580000Y66500000D03*
X498420000Y66500000D03*
D33*
X504500000Y67450000D03*
X504500000Y65550000D03*
X502500000Y66500000D03*
%TD*%
D32*
%TO.C,C83*%
X426500000Y6500000D03*
X428050000Y6500000D03*
%TD*%
%TO.C,C27*%
X171725000Y55750000D03*
X173275000Y55750000D03*
%TD*%
D36*
%TO.C,R33*%
X425000000Y86325000D03*
X425000000Y84675000D03*
%TD*%
D34*
%TO.C,C126*%
X465500000Y32725000D03*
X465500000Y34275000D03*
%TD*%
D31*
%TO.C,C89*%
X314500000Y69500000D03*
X312950000Y69500000D03*
%TD*%
D15*
%TO.C,H103*%
X479420000Y47500000D03*
X489580000Y47500000D03*
D33*
X483500000Y46550000D03*
X483500000Y48450000D03*
X485500000Y47500000D03*
%TD*%
D32*
%TO.C,C189*%
X8500000Y6500000D03*
X10050000Y6500000D03*
%TD*%
D50*
%TO.C,B3*%
X280792000Y88250000D03*
X280792000Y88900000D03*
X280792000Y89550000D03*
X280792000Y90200000D03*
X280792000Y90850000D03*
X280792000Y91500000D03*
X280792000Y92150000D03*
X286668000Y92150000D03*
X286668000Y91500000D03*
X286668000Y90850000D03*
X286668000Y90200000D03*
X286668000Y89550000D03*
X286668000Y88900000D03*
X286668000Y88250000D03*
%TD*%
D49*
%TO.C,OPA6*%
X399700000Y49250000D03*
X398750000Y49250000D03*
X397800000Y49250000D03*
X397800000Y51750000D03*
X399700000Y51750000D03*
%TD*%
D15*
%TO.C,H78*%
X308420000Y9500000D03*
X318580000Y9500000D03*
D33*
X312500000Y8550000D03*
X312500000Y10450000D03*
X314500000Y9500000D03*
%TD*%
D15*
%TO.C,H65*%
X299580000Y66500000D03*
X289420000Y66500000D03*
D33*
X295500000Y67450000D03*
X295500000Y65550000D03*
X293500000Y66500000D03*
%TD*%
D15*
%TO.C,H119*%
X555420000Y47500000D03*
X565580000Y47500000D03*
D33*
X559500000Y46550000D03*
X559500000Y48450000D03*
X561500000Y47500000D03*
%TD*%
D37*
%TO.C,C4*%
X319000000Y80775000D03*
X319000000Y79225000D03*
%TD*%
D32*
%TO.C,C95*%
X350500000Y25500000D03*
X352050000Y25500000D03*
%TD*%
%TO.C,C183*%
X46500000Y25500000D03*
X48050000Y25500000D03*
%TD*%
D15*
%TO.C,H109*%
X441420000Y9500000D03*
X451580000Y9500000D03*
D33*
X445500000Y8550000D03*
X445500000Y10450000D03*
X447500000Y9500000D03*
%TD*%
D32*
%TO.C,C64*%
X483500000Y25500000D03*
X485050000Y25500000D03*
%TD*%
D45*
%TO.C,R47*%
X277000000Y81675000D03*
X277000000Y83325000D03*
%TD*%
%TO.C,R16*%
X257000000Y71675000D03*
X257000000Y73325000D03*
%TD*%
%TO.C,R48*%
X273500000Y81675000D03*
X273500000Y83325000D03*
%TD*%
D34*
%TO.C,C149*%
X158500000Y46500000D03*
X158500000Y48050000D03*
%TD*%
D15*
%TO.C,H117*%
X527580000Y47500000D03*
X517420000Y47500000D03*
D33*
X523500000Y48450000D03*
X523500000Y46550000D03*
X521500000Y47500000D03*
%TD*%
D15*
%TO.C,H113*%
X527580000Y66500000D03*
X517420000Y66500000D03*
D33*
X523500000Y67450000D03*
X523500000Y65550000D03*
X521500000Y66500000D03*
%TD*%
D37*
%TO.C,C214*%
X305750000Y76525000D03*
X305750000Y74975000D03*
%TD*%
D50*
%TO.C,B2*%
X264938000Y75450000D03*
X264938000Y74800000D03*
X264938000Y74150000D03*
X264938000Y73500000D03*
X264938000Y72850000D03*
X264938000Y72200000D03*
X264938000Y71550000D03*
X259062000Y71550000D03*
X259062000Y72200000D03*
X259062000Y72850000D03*
X259062000Y73500000D03*
X259062000Y74150000D03*
X259062000Y74800000D03*
X259062000Y75450000D03*
%TD*%
D45*
%TO.C,R38*%
X25750000Y79925000D03*
X25750000Y81575000D03*
%TD*%
D15*
%TO.C,H3*%
X33580000Y66500000D03*
X23420000Y66500000D03*
D33*
X29500000Y67450000D03*
X29500000Y65550000D03*
X27500000Y66500000D03*
%TD*%
D15*
%TO.C,H93*%
X365420000Y9500000D03*
X375580000Y9500000D03*
D33*
X369500000Y8550000D03*
X369500000Y10450000D03*
X371500000Y9500000D03*
%TD*%
D49*
%TO.C,IC4*%
X387800000Y96500000D03*
X388750000Y96500000D03*
X389700000Y96500000D03*
X389700000Y94000000D03*
X388750000Y94000000D03*
X387800000Y94000000D03*
%TD*%
D31*
%TO.C,C131*%
X276500000Y50500000D03*
X274950000Y50500000D03*
%TD*%
%TO.C,C62*%
X447500000Y50500000D03*
X445950000Y50500000D03*
%TD*%
D34*
%TO.C,C196*%
X463500000Y32725000D03*
X463500000Y34275000D03*
%TD*%
D15*
%TO.C,H17*%
X71580000Y66500000D03*
X61420000Y66500000D03*
D33*
X67500000Y67450000D03*
X67500000Y65550000D03*
X65500000Y66500000D03*
%TD*%
D31*
%TO.C,C90*%
X296500000Y69500000D03*
X294950000Y69500000D03*
%TD*%
D32*
%TO.C,C151*%
X198500000Y25500000D03*
X200050000Y25500000D03*
%TD*%
D15*
%TO.C,H90*%
X384420000Y28500000D03*
X394580000Y28500000D03*
D33*
X388500000Y27550000D03*
X388500000Y29450000D03*
X390500000Y28500000D03*
%TD*%
D32*
%TO.C,C53*%
X540500000Y6500000D03*
X542050000Y6500000D03*
%TD*%
D15*
%TO.C,H102*%
X460420000Y47500000D03*
X470580000Y47500000D03*
D33*
X464500000Y46550000D03*
X464500000Y48450000D03*
X466500000Y47500000D03*
%TD*%
D39*
%TO.C,MUX5*%
X316015000Y42725000D03*
X317285000Y42725000D03*
X318555000Y42725000D03*
X319825000Y42725000D03*
X321095000Y42725000D03*
X322365000Y42725000D03*
X323635000Y42725000D03*
X324905000Y42725000D03*
X326175000Y42725000D03*
X327445000Y42725000D03*
X328715000Y42725000D03*
X329985000Y42725000D03*
X329985000Y33275000D03*
X328715000Y33275000D03*
X327445000Y33275000D03*
X326175000Y33275000D03*
X324905000Y33275000D03*
X323635000Y33275000D03*
X322365000Y33275000D03*
X321095000Y33275000D03*
X319825000Y33275000D03*
X318555000Y33275000D03*
X317285000Y33275000D03*
X316015000Y33275000D03*
%TD*%
D37*
%TO.C,C218*%
X275250000Y83275000D03*
X275250000Y81725000D03*
%TD*%
D34*
%TO.C,C13*%
X230500000Y81450000D03*
X230500000Y83000000D03*
%TD*%
D32*
%TO.C,C112*%
X399725000Y53750000D03*
X401275000Y53750000D03*
%TD*%
D15*
%TO.C,H73*%
X289420000Y28500000D03*
X299580000Y28500000D03*
D33*
X293500000Y27550000D03*
X293500000Y29450000D03*
X295500000Y28500000D03*
%TD*%
D32*
%TO.C,C25*%
X95725000Y55750000D03*
X97275000Y55750000D03*
%TD*%
D51*
%TO.C,U4*%
X6323500Y89700000D03*
X2616500Y89700000D03*
%TD*%
D52*
%TO.C,FL2*%
X14075000Y78500000D03*
X10925000Y78500000D03*
%TD*%
D45*
%TO.C,R36*%
X467250000Y90425000D03*
X467250000Y92075000D03*
%TD*%
D34*
%TO.C,C203*%
X309500000Y32725000D03*
X309500000Y34275000D03*
%TD*%
D15*
%TO.C,H108*%
X498420000Y28500000D03*
X508580000Y28500000D03*
D33*
X502500000Y27550000D03*
X502500000Y29450000D03*
X504500000Y28500000D03*
%TD*%
D32*
%TO.C,C148*%
X182725000Y45000000D03*
X184275000Y45000000D03*
%TD*%
D31*
%TO.C,C56*%
X485500000Y69500000D03*
X483950000Y69500000D03*
%TD*%
D15*
%TO.C,H123*%
X555420000Y28500000D03*
X565580000Y28500000D03*
D33*
X559500000Y27550000D03*
X559500000Y29450000D03*
X561500000Y28500000D03*
%TD*%
D15*
%TO.C,H22*%
X80420000Y47500000D03*
X90580000Y47500000D03*
D33*
X84500000Y46550000D03*
X84500000Y48450000D03*
X86500000Y47500000D03*
%TD*%
D32*
%TO.C,C60*%
X486725000Y45000000D03*
X488275000Y45000000D03*
%TD*%
D15*
%TO.C,H18*%
X90580000Y66500000D03*
X80420000Y66500000D03*
D33*
X86500000Y67450000D03*
X86500000Y65550000D03*
X84500000Y66500000D03*
%TD*%
D31*
%TO.C,C40*%
X561500000Y69500000D03*
X559950000Y69500000D03*
%TD*%
D34*
%TO.C,C105*%
X237500000Y32725000D03*
X237500000Y34275000D03*
%TD*%
D44*
%TO.C,C191*%
X233000000Y92050000D03*
X233000000Y93950000D03*
%TD*%
D53*
%TO.C,D1*%
X2616500Y81800000D03*
X2616500Y86200000D03*
%TD*%
D45*
%TO.C,R2*%
X230500000Y77850000D03*
X230500000Y79500000D03*
%TD*%
D15*
%TO.C,H23*%
X99420000Y47500000D03*
X109580000Y47500000D03*
D33*
X103500000Y46550000D03*
X103500000Y48450000D03*
X105500000Y47500000D03*
%TD*%
D15*
%TO.C,H63*%
X251420000Y9500000D03*
X261580000Y9500000D03*
D33*
X255500000Y8550000D03*
X255500000Y10450000D03*
X257500000Y9500000D03*
%TD*%
D38*
%TO.C,R27*%
X305575000Y88750000D03*
X303925000Y88750000D03*
%TD*%
D15*
%TO.C,H71*%
X327420000Y47500000D03*
X337580000Y47500000D03*
D33*
X331500000Y46550000D03*
X331500000Y48450000D03*
X333500000Y47500000D03*
%TD*%
D32*
%TO.C,C111*%
X399725000Y55750000D03*
X401275000Y55750000D03*
%TD*%
D35*
%TO.C,C195*%
X28500000Y81450000D03*
X28500000Y79550000D03*
%TD*%
D15*
%TO.C,H57*%
X213420000Y28500000D03*
X223580000Y28500000D03*
D33*
X217500000Y27550000D03*
X217500000Y29450000D03*
X219500000Y28500000D03*
%TD*%
D32*
%TO.C,C142*%
X217500000Y6500000D03*
X219050000Y6500000D03*
%TD*%
D37*
%TO.C,C208*%
X292250000Y88025000D03*
X292250000Y86475000D03*
%TD*%
D15*
%TO.C,H118*%
X536420000Y47500000D03*
X546580000Y47500000D03*
D33*
X540500000Y46550000D03*
X540500000Y48450000D03*
X542500000Y47500000D03*
%TD*%
D32*
%TO.C,C157*%
X160500000Y6500000D03*
X162050000Y6500000D03*
%TD*%
D15*
%TO.C,H20*%
X128580000Y66500000D03*
X118420000Y66500000D03*
D33*
X124500000Y67450000D03*
X124500000Y65550000D03*
X122500000Y66500000D03*
%TD*%
D34*
%TO.C,C197*%
X461500000Y32725000D03*
X461500000Y34275000D03*
%TD*%
D32*
%TO.C,C158*%
X141500000Y6500000D03*
X143050000Y6500000D03*
%TD*%
D15*
%TO.C,H87*%
X403420000Y47500000D03*
X413580000Y47500000D03*
D33*
X407500000Y46550000D03*
X407500000Y48450000D03*
X409500000Y47500000D03*
%TD*%
D15*
%TO.C,H88*%
X432580000Y47500000D03*
X422420000Y47500000D03*
D33*
X428500000Y48450000D03*
X428500000Y46550000D03*
X426500000Y47500000D03*
%TD*%
D36*
%TO.C,R44*%
X304000000Y76575000D03*
X304000000Y74925000D03*
%TD*%
D39*
%TO.C,MUX3*%
X164015000Y42725000D03*
X165285000Y42725000D03*
X166555000Y42725000D03*
X167825000Y42725000D03*
X169095000Y42725000D03*
X170365000Y42725000D03*
X171635000Y42725000D03*
X172905000Y42725000D03*
X174175000Y42725000D03*
X175445000Y42725000D03*
X176715000Y42725000D03*
X177985000Y42725000D03*
X177985000Y33275000D03*
X176715000Y33275000D03*
X175445000Y33275000D03*
X174175000Y33275000D03*
X172905000Y33275000D03*
X171635000Y33275000D03*
X170365000Y33275000D03*
X169095000Y33275000D03*
X167825000Y33275000D03*
X166555000Y33275000D03*
X165285000Y33275000D03*
X164015000Y33275000D03*
%TD*%
D49*
%TO.C,OPA7*%
X475700000Y49250000D03*
X474750000Y49250000D03*
X473800000Y49250000D03*
X473800000Y51750000D03*
X475700000Y51750000D03*
%TD*%
D34*
%TO.C,C33*%
X28500000Y34725000D03*
X28500000Y36275000D03*
%TD*%
D15*
%TO.C,H16*%
X42420000Y9500000D03*
X52580000Y9500000D03*
D33*
X46500000Y8550000D03*
X46500000Y10450000D03*
X48500000Y9500000D03*
%TD*%
D31*
%TO.C,C58*%
X447500000Y69500000D03*
X445950000Y69500000D03*
%TD*%
D15*
%TO.C,H2*%
X14580000Y66500000D03*
X4420000Y66500000D03*
D33*
X10500000Y67450000D03*
X10500000Y65550000D03*
X8500000Y66500000D03*
%TD*%
D31*
%TO.C,C93*%
X313275000Y50500000D03*
X311725000Y50500000D03*
%TD*%
D34*
%TO.C,C123*%
X389500000Y32725000D03*
X389500000Y34275000D03*
%TD*%
%TO.C,C104*%
X157500000Y32725000D03*
X157500000Y34275000D03*
%TD*%
D32*
%TO.C,C110*%
X323725000Y53750000D03*
X325275000Y53750000D03*
%TD*%
D37*
%TO.C,C206*%
X415750000Y82275000D03*
X415750000Y80725000D03*
%TD*%
D43*
%TO.C,R34*%
X493925000Y85500000D03*
X495575000Y85500000D03*
%TD*%
D15*
%TO.C,H50*%
X242580000Y66500000D03*
X232420000Y66500000D03*
D33*
X238500000Y67450000D03*
X238500000Y65550000D03*
X236500000Y66500000D03*
%TD*%
D15*
%TO.C,H53*%
X223580000Y47500000D03*
X213420000Y47500000D03*
D33*
X219500000Y48450000D03*
X219500000Y46550000D03*
X217500000Y47500000D03*
%TD*%
D32*
%TO.C,C97*%
X312500000Y25500000D03*
X314050000Y25500000D03*
%TD*%
D15*
%TO.C,H59*%
X251420000Y28500000D03*
X261580000Y28500000D03*
D33*
X255500000Y27550000D03*
X255500000Y29450000D03*
X257500000Y28500000D03*
%TD*%
D31*
%TO.C,C150*%
X143500000Y50500000D03*
X141950000Y50500000D03*
%TD*%
D34*
%TO.C,C103*%
X159500000Y32725000D03*
X159500000Y34275000D03*
%TD*%
D45*
%TO.C,R49*%
X271000000Y81675000D03*
X271000000Y83325000D03*
%TD*%
D32*
%TO.C,C204*%
X19725000Y57000000D03*
X21275000Y57000000D03*
%TD*%
%TO.C,C102*%
X293500000Y6500000D03*
X295050000Y6500000D03*
%TD*%
D15*
%TO.C,H7*%
X23420000Y47500000D03*
X33580000Y47500000D03*
D33*
X27500000Y46550000D03*
X27500000Y48450000D03*
X29500000Y47500000D03*
%TD*%
D54*
%TO.C,IC1*%
X367050000Y86550000D03*
X367050000Y87050000D03*
X367050000Y87550000D03*
X367050000Y88050000D03*
X367050000Y88550000D03*
X367050000Y89050000D03*
D55*
X367750000Y89750000D03*
X368250000Y89750000D03*
X368750000Y89750000D03*
X369250000Y89750000D03*
D54*
X369950000Y89050000D03*
X369950000Y88550000D03*
X369950000Y88050000D03*
X369950000Y87550000D03*
X369950000Y87050000D03*
X369950000Y86550000D03*
D55*
X369250000Y85850000D03*
X368750000Y85850000D03*
X368250000Y85850000D03*
X367750000Y85850000D03*
D56*
X368500000Y87800000D03*
%TD*%
D31*
%TO.C,C193*%
X219275000Y90000000D03*
X217725000Y90000000D03*
%TD*%
%TO.C,C73*%
X390500000Y69500000D03*
X388950000Y69500000D03*
%TD*%
D15*
%TO.C,H66*%
X318580000Y66500000D03*
X308420000Y66500000D03*
D33*
X314500000Y67450000D03*
X314500000Y65550000D03*
X312500000Y66500000D03*
%TD*%
D15*
%TO.C,H95*%
X403420000Y9500000D03*
X413580000Y9500000D03*
D33*
X407500000Y8550000D03*
X407500000Y10450000D03*
X409500000Y9500000D03*
%TD*%
D31*
%TO.C,C175*%
X48500000Y69500000D03*
X46950000Y69500000D03*
%TD*%
%TO.C,C87*%
X352500000Y69500000D03*
X350950000Y69500000D03*
%TD*%
D46*
%TO.C,DEVICE1*%
X392175000Y93171000D03*
X400825000Y93171000D03*
D47*
X400825000Y97351000D03*
X392175000Y97351000D03*
D48*
X393150000Y92403000D03*
X393950000Y92403000D03*
X395250000Y92403000D03*
X396250000Y92403000D03*
X396750000Y92403000D03*
X397749500Y92403000D03*
X399050000Y92403000D03*
X399850000Y92403000D03*
X399550000Y92403000D03*
X398750000Y92403000D03*
X398250000Y92403000D03*
X397250000Y92403000D03*
X395750000Y92403000D03*
X394750000Y92403000D03*
X394250000Y92403000D03*
X393450000Y92403000D03*
%TD*%
D32*
%TO.C,C155*%
X198500000Y6500000D03*
X200050000Y6500000D03*
%TD*%
D31*
%TO.C,C72*%
X409500000Y69500000D03*
X407950000Y69500000D03*
%TD*%
D15*
%TO.C,H84*%
X432580000Y66500000D03*
X422420000Y66500000D03*
D33*
X428500000Y67450000D03*
X428500000Y65550000D03*
X426500000Y66500000D03*
%TD*%
D31*
%TO.C,C128*%
X257500000Y69500000D03*
X255950000Y69500000D03*
%TD*%
D34*
%TO.C,C212*%
X502000000Y84725000D03*
X502000000Y86275000D03*
%TD*%
D37*
%TO.C,C47*%
X365000000Y88775000D03*
X365000000Y87225000D03*
%TD*%
D15*
%TO.C,H32*%
X118420000Y9500000D03*
X128580000Y9500000D03*
D33*
X122500000Y8550000D03*
X122500000Y10450000D03*
X124500000Y9500000D03*
%TD*%
D38*
%TO.C,R19*%
X367575000Y84000000D03*
X365925000Y84000000D03*
%TD*%
D34*
%TO.C,C61*%
X462500000Y46500000D03*
X462500000Y48050000D03*
%TD*%
D45*
%TO.C,R12*%
X282250000Y71625000D03*
X282250000Y73275000D03*
%TD*%
D32*
%TO.C,C63*%
X502500000Y25500000D03*
X504050000Y25500000D03*
%TD*%
D15*
%TO.C,H96*%
X422420000Y9500000D03*
X432580000Y9500000D03*
D33*
X426500000Y8550000D03*
X426500000Y10450000D03*
X428500000Y9500000D03*
%TD*%
D34*
%TO.C,C199*%
X537500000Y32725000D03*
X537500000Y34275000D03*
%TD*%
D15*
%TO.C,H35*%
X185580000Y66500000D03*
X175420000Y66500000D03*
D33*
X181500000Y67450000D03*
X181500000Y65550000D03*
X179500000Y66500000D03*
%TD*%
D31*
%TO.C,C59*%
X504500000Y50500000D03*
X502950000Y50500000D03*
%TD*%
D37*
%TO.C,C194*%
X31000000Y81550000D03*
X31000000Y80000000D03*
%TD*%
D31*
%TO.C,C42*%
X523500000Y69500000D03*
X521950000Y69500000D03*
%TD*%
D32*
%TO.C,C68*%
X483500000Y6500000D03*
X485050000Y6500000D03*
%TD*%
D15*
%TO.C,H75*%
X327420000Y28500000D03*
X337580000Y28500000D03*
D33*
X331500000Y27550000D03*
X331500000Y29450000D03*
X333500000Y28500000D03*
%TD*%
D45*
%TO.C,R50*%
X267500000Y81675000D03*
X267500000Y83325000D03*
%TD*%
D32*
%TO.C,C174*%
X65500000Y6500000D03*
X67050000Y6500000D03*
%TD*%
D34*
%TO.C,C215*%
X299750000Y74975000D03*
X299750000Y76525000D03*
%TD*%
D32*
%TO.C,C84*%
X407500000Y6500000D03*
X409050000Y6500000D03*
%TD*%
D15*
%TO.C,H19*%
X109580000Y66500000D03*
X99420000Y66500000D03*
D33*
X105500000Y67450000D03*
X105500000Y65550000D03*
X103500000Y66500000D03*
%TD*%
D43*
%TO.C,R13*%
X292425000Y73950000D03*
X294075000Y73950000D03*
%TD*%
D38*
%TO.C,R10*%
X286125000Y69500000D03*
X284475000Y69500000D03*
%TD*%
D31*
%TO.C,C134*%
X219500000Y50500000D03*
X217950000Y50500000D03*
%TD*%
D32*
%TO.C,C86*%
X369500000Y6500000D03*
X371050000Y6500000D03*
%TD*%
D38*
%TO.C,R4*%
X399825000Y90000000D03*
X398175000Y90000000D03*
%TD*%
D15*
%TO.C,H110*%
X460420000Y9500000D03*
X470580000Y9500000D03*
D33*
X464500000Y8550000D03*
X464500000Y10450000D03*
X466500000Y9500000D03*
%TD*%
D31*
%TO.C,C78*%
X371500000Y50500000D03*
X369950000Y50500000D03*
%TD*%
D34*
%TO.C,C22*%
X276300000Y74725000D03*
X276300000Y76275000D03*
%TD*%
D15*
%TO.C,H56*%
X280580000Y47500000D03*
X270420000Y47500000D03*
D33*
X276500000Y48450000D03*
X276500000Y46550000D03*
X274500000Y47500000D03*
%TD*%
D31*
%TO.C,C71*%
X428500000Y69500000D03*
X426950000Y69500000D03*
%TD*%
D32*
%TO.C,C184*%
X27500000Y25500000D03*
X29050000Y25500000D03*
%TD*%
D31*
%TO.C,C217*%
X280275000Y81750000D03*
X278725000Y81750000D03*
%TD*%
D39*
%TO.C,MUX8*%
X544015000Y42725000D03*
X545285000Y42725000D03*
X546555000Y42725000D03*
X547825000Y42725000D03*
X549095000Y42725000D03*
X550365000Y42725000D03*
X551635000Y42725000D03*
X552905000Y42725000D03*
X554175000Y42725000D03*
X555445000Y42725000D03*
X556715000Y42725000D03*
X557985000Y42725000D03*
X557985000Y33275000D03*
X556715000Y33275000D03*
X555445000Y33275000D03*
X554175000Y33275000D03*
X552905000Y33275000D03*
X551635000Y33275000D03*
X550365000Y33275000D03*
X549095000Y33275000D03*
X547825000Y33275000D03*
X546555000Y33275000D03*
X545285000Y33275000D03*
X544015000Y33275000D03*
%TD*%
D15*
%TO.C,H41*%
X137420000Y28500000D03*
X147580000Y28500000D03*
D33*
X141500000Y27550000D03*
X141500000Y29450000D03*
X143500000Y28500000D03*
%TD*%
D31*
%TO.C,C94*%
X295500000Y50500000D03*
X293950000Y50500000D03*
%TD*%
D36*
%TO.C,R45*%
X301500000Y76575000D03*
X301500000Y74925000D03*
%TD*%
D50*
%TO.C,B1*%
X290238000Y75400000D03*
X290238000Y74750000D03*
X290238000Y74100000D03*
X290238000Y73450000D03*
X290238000Y72800000D03*
X290238000Y72150000D03*
X290238000Y71500000D03*
X284362000Y71500000D03*
X284362000Y72150000D03*
X284362000Y72800000D03*
X284362000Y73450000D03*
X284362000Y74100000D03*
X284362000Y74750000D03*
X284362000Y75400000D03*
%TD*%
D32*
%TO.C,C67*%
X502500000Y6500000D03*
X504050000Y6500000D03*
%TD*%
%TO.C,C172*%
X103500000Y6500000D03*
X105050000Y6500000D03*
%TD*%
D15*
%TO.C,H62*%
X232420000Y9500000D03*
X242580000Y9500000D03*
D33*
X236500000Y8550000D03*
X236500000Y10450000D03*
X238500000Y9500000D03*
%TD*%
D34*
%TO.C,C108*%
X9500000Y31725000D03*
X9500000Y33275000D03*
%TD*%
D15*
%TO.C,H26*%
X80420000Y28500000D03*
X90580000Y28500000D03*
D33*
X84500000Y27550000D03*
X84500000Y29450000D03*
X86500000Y28500000D03*
%TD*%
D44*
%TO.C,C12*%
X233000000Y81050000D03*
X233000000Y82950000D03*
%TD*%
D34*
%TO.C,C107*%
X233500000Y32725000D03*
X233500000Y34275000D03*
%TD*%
D32*
%TO.C,C139*%
X274500000Y6500000D03*
X276050000Y6500000D03*
%TD*%
D31*
%TO.C,C14*%
X219275000Y79225000D03*
X217725000Y79225000D03*
%TD*%
D37*
%TO.C,C39*%
X376000000Y87275000D03*
X376000000Y85725000D03*
%TD*%
D36*
%TO.C,R5*%
X228000000Y83050000D03*
X228000000Y81400000D03*
%TD*%
D35*
%TO.C,C118*%
X363000000Y88950000D03*
X363000000Y87050000D03*
%TD*%
D43*
%TO.C,R30*%
X412675000Y89750000D03*
X414325000Y89750000D03*
%TD*%
D49*
%TO.C,OPA8*%
X551700000Y49250000D03*
X550750000Y49250000D03*
X549800000Y49250000D03*
X549800000Y51750000D03*
X551700000Y51750000D03*
%TD*%
D15*
%TO.C,H81*%
X375580000Y66500000D03*
X365420000Y66500000D03*
D33*
X371500000Y67450000D03*
X371500000Y65550000D03*
X369500000Y66500000D03*
%TD*%
D36*
%TO.C,R46*%
X298000000Y76575000D03*
X298000000Y74925000D03*
%TD*%
D15*
%TO.C,H33*%
X147580000Y66500000D03*
X137420000Y66500000D03*
D33*
X143500000Y67450000D03*
X143500000Y65550000D03*
X141500000Y66500000D03*
%TD*%
D32*
%TO.C,C49*%
X540500000Y25500000D03*
X542050000Y25500000D03*
%TD*%
D38*
%TO.C,R20*%
X391075000Y88750000D03*
X389425000Y88750000D03*
%TD*%
D31*
%TO.C,C160*%
X105500000Y69500000D03*
X103950000Y69500000D03*
%TD*%
D15*
%TO.C,H52*%
X280580000Y66500000D03*
X270420000Y66500000D03*
D33*
X276500000Y67450000D03*
X276500000Y65550000D03*
X274500000Y66500000D03*
%TD*%
D15*
%TO.C,H21*%
X71580000Y47500000D03*
X61420000Y47500000D03*
D33*
X67500000Y48450000D03*
X67500000Y46550000D03*
X65500000Y47500000D03*
%TD*%
D15*
%TO.C,H85*%
X375580000Y47500000D03*
X365420000Y47500000D03*
D33*
X371500000Y48450000D03*
X371500000Y46550000D03*
X369500000Y47500000D03*
%TD*%
D15*
%TO.C,H79*%
X327420000Y9500000D03*
X337580000Y9500000D03*
D33*
X331500000Y8550000D03*
X331500000Y10450000D03*
X333500000Y9500000D03*
%TD*%
D15*
%TO.C,H72*%
X356580000Y47500000D03*
X346420000Y47500000D03*
D33*
X352500000Y48450000D03*
X352500000Y46550000D03*
X350500000Y47500000D03*
%TD*%
D15*
%TO.C,H111*%
X479420000Y9500000D03*
X489580000Y9500000D03*
D33*
X483500000Y8550000D03*
X483500000Y10450000D03*
X485500000Y9500000D03*
%TD*%
D32*
%TO.C,C153*%
X160500000Y25500000D03*
X162050000Y25500000D03*
%TD*%
D15*
%TO.C,H27*%
X99420000Y28500000D03*
X109580000Y28500000D03*
D33*
X103500000Y27550000D03*
X103500000Y29450000D03*
X105500000Y28500000D03*
%TD*%
D34*
%TO.C,C200*%
X535500000Y32725000D03*
X535500000Y34275000D03*
%TD*%
D45*
%TO.C,R3*%
X230500000Y88675000D03*
X230500000Y90325000D03*
%TD*%
D32*
%TO.C,C92*%
X334725000Y45000000D03*
X336275000Y45000000D03*
%TD*%
D15*
%TO.C,H40*%
X204580000Y47500000D03*
X194420000Y47500000D03*
D33*
X200500000Y48450000D03*
X200500000Y46550000D03*
X198500000Y47500000D03*
%TD*%
D49*
%TO.C,IC5*%
X383300000Y96500000D03*
X384250000Y96500000D03*
X385200000Y96500000D03*
X385200000Y94000000D03*
X384250000Y94000000D03*
X383300000Y94000000D03*
%TD*%
D57*
%TO.C,U1*%
X6470000Y81560501D03*
X6470000Y77160501D03*
%TD*%
D31*
%TO.C,C177*%
X10500000Y69500000D03*
X8950000Y69500000D03*
%TD*%
D15*
%TO.C,H30*%
X80420000Y9500000D03*
X90580000Y9500000D03*
D33*
X84500000Y8550000D03*
X84500000Y10450000D03*
X86500000Y9500000D03*
%TD*%
D31*
%TO.C,C129*%
X238500000Y69500000D03*
X236950000Y69500000D03*
%TD*%
D34*
%TO.C,C17*%
X252500000Y74725000D03*
X252500000Y76275000D03*
%TD*%
D32*
%TO.C,C44*%
X560500000Y44500000D03*
X562050000Y44500000D03*
%TD*%
D15*
%TO.C,H115*%
X565580000Y66500000D03*
X555420000Y66500000D03*
D33*
X561500000Y67450000D03*
X561500000Y65550000D03*
X559500000Y66500000D03*
%TD*%
D34*
%TO.C,C35*%
X85500000Y32725000D03*
X85500000Y34275000D03*
%TD*%
D15*
%TO.C,H127*%
X555420000Y9500000D03*
X565580000Y9500000D03*
D33*
X559500000Y8550000D03*
X559500000Y10450000D03*
X561500000Y9500000D03*
%TD*%
D31*
%TO.C,C75*%
X428500000Y50500000D03*
X426950000Y50500000D03*
%TD*%
D15*
%TO.C,H105*%
X441420000Y28500000D03*
X451580000Y28500000D03*
D33*
X445500000Y27550000D03*
X445500000Y29450000D03*
X447500000Y28500000D03*
%TD*%
D43*
%TO.C,R31*%
X416175000Y89750000D03*
X417825000Y89750000D03*
%TD*%
D32*
%TO.C,C15*%
X19725000Y53000000D03*
X21275000Y53000000D03*
%TD*%
%TO.C,C141*%
X236500000Y6500000D03*
X238050000Y6500000D03*
%TD*%
D35*
%TO.C,C207*%
X418000000Y82450000D03*
X418000000Y80550000D03*
%TD*%
D49*
%TO.C,OPA5*%
X323650000Y49250000D03*
X322700000Y49250000D03*
X321750000Y49250000D03*
X321750000Y51750000D03*
X323650000Y51750000D03*
%TD*%
D32*
%TO.C,C30*%
X247725000Y53750000D03*
X249275000Y53750000D03*
%TD*%
D15*
%TO.C,H4*%
X52580000Y66500000D03*
X42420000Y66500000D03*
D33*
X48500000Y67450000D03*
X48500000Y65550000D03*
X46500000Y66500000D03*
%TD*%
D15*
%TO.C,H101*%
X451580000Y47450000D03*
X441420000Y47450000D03*
D33*
X447500000Y48400000D03*
X447500000Y46500000D03*
X445500000Y47450000D03*
%TD*%
D32*
%TO.C,C180*%
X30725000Y46000000D03*
X32275000Y46000000D03*
%TD*%
D34*
%TO.C,C124*%
X387500000Y32725000D03*
X387500000Y34275000D03*
%TD*%
D32*
%TO.C,C96*%
X331500000Y25500000D03*
X333050000Y25500000D03*
%TD*%
D49*
%TO.C,OPA2*%
X95700000Y49250000D03*
X94750000Y49250000D03*
X93800000Y49250000D03*
X93800000Y51750000D03*
X95700000Y51750000D03*
%TD*%
D34*
%TO.C,C8*%
X544500000Y45725000D03*
X544500000Y47275000D03*
%TD*%
D15*
%TO.C,H44*%
X194420000Y28500000D03*
X204580000Y28500000D03*
D33*
X198500000Y27550000D03*
X198500000Y29450000D03*
X200500000Y28500000D03*
%TD*%
D15*
%TO.C,H76*%
X346420000Y28500000D03*
X356580000Y28500000D03*
D33*
X350500000Y27550000D03*
X350500000Y29450000D03*
X352500000Y28500000D03*
%TD*%
D43*
%TO.C,R35*%
X493925000Y90500000D03*
X495575000Y90500000D03*
%TD*%
D32*
%TO.C,C2*%
X16700000Y79750000D03*
X18250000Y79750000D03*
%TD*%
D15*
%TO.C,H125*%
X517420000Y9500000D03*
X527580000Y9500000D03*
D33*
X521500000Y8550000D03*
X521500000Y10450000D03*
X523500000Y9500000D03*
%TD*%
D15*
%TO.C,H34*%
X166580000Y66500000D03*
X156420000Y66500000D03*
D33*
X162500000Y67450000D03*
X162500000Y65550000D03*
X160500000Y66500000D03*
%TD*%
D32*
%TO.C,C138*%
X217500000Y25500000D03*
X219050000Y25500000D03*
%TD*%
D15*
%TO.C,H61*%
X213420000Y9500000D03*
X223580000Y9500000D03*
D33*
X217500000Y8550000D03*
X217500000Y10450000D03*
X219500000Y9500000D03*
%TD*%
D31*
%TO.C,C146*%
X143500000Y69500000D03*
X141950000Y69500000D03*
%TD*%
D32*
%TO.C,C1u8*%
X551725000Y57750000D03*
X553275000Y57750000D03*
%TD*%
D34*
%TO.C,C125*%
X385500000Y32725000D03*
X385500000Y34275000D03*
%TD*%
D15*
%TO.C,H86*%
X384420000Y47500000D03*
X394580000Y47500000D03*
D33*
X388500000Y46550000D03*
X388500000Y48450000D03*
X390500000Y47500000D03*
%TD*%
D32*
%TO.C,C70*%
X445500000Y6500000D03*
X447050000Y6500000D03*
%TD*%
D34*
%TO.C,C36*%
X83500000Y32725000D03*
X83500000Y34275000D03*
%TD*%
D36*
%TO.C,R9*%
X228000000Y90325000D03*
X228000000Y88675000D03*
%TD*%
D34*
%TO.C,C19*%
X7500000Y31725000D03*
X7500000Y33275000D03*
%TD*%
D15*
%TO.C,H54*%
X232420000Y47500000D03*
X242580000Y47500000D03*
D33*
X236500000Y46550000D03*
X236500000Y48450000D03*
X238500000Y47500000D03*
%TD*%
D34*
%TO.C,C38*%
X161500000Y32725000D03*
X161500000Y34275000D03*
%TD*%
D31*
%TO.C,C181*%
X10500000Y50500000D03*
X8950000Y50500000D03*
%TD*%
D34*
%TO.C,C182*%
X469750000Y88975000D03*
X469750000Y90525000D03*
%TD*%
D32*
%TO.C,C1u6*%
X399725000Y57750000D03*
X401275000Y57750000D03*
%TD*%
%TO.C,C80*%
X407500000Y25500000D03*
X409050000Y25500000D03*
%TD*%
D15*
%TO.C,H12*%
X42420000Y28500000D03*
X52580000Y28500000D03*
D33*
X46500000Y27550000D03*
X46500000Y29450000D03*
X48500000Y28500000D03*
%TD*%
D32*
%TO.C,C188*%
X27500000Y6500000D03*
X29050000Y6500000D03*
%TD*%
D31*
%TO.C,C179*%
X48500000Y50500000D03*
X46950000Y50500000D03*
%TD*%
D15*
%TO.C,H69*%
X299580000Y47500000D03*
X289420000Y47500000D03*
D33*
X295500000Y48450000D03*
X295500000Y46550000D03*
X293500000Y47500000D03*
%TD*%
D32*
%TO.C,C132*%
X258725000Y45000000D03*
X260275000Y45000000D03*
%TD*%
%TO.C,C136*%
X255500000Y25500000D03*
X257050000Y25500000D03*
%TD*%
D15*
%TO.C,H42*%
X156420000Y28500000D03*
X166580000Y28500000D03*
D33*
X160500000Y27550000D03*
X160500000Y29450000D03*
X162500000Y28500000D03*
%TD*%
D31*
%TO.C,C163*%
X124500000Y50500000D03*
X122950000Y50500000D03*
%TD*%
D32*
%TO.C,C69*%
X464500000Y6500000D03*
X466050000Y6500000D03*
%TD*%
D15*
%TO.C,H64*%
X270420000Y9500000D03*
X280580000Y9500000D03*
D33*
X274500000Y8550000D03*
X274500000Y10450000D03*
X276500000Y9500000D03*
%TD*%
D34*
%TO.C,C115*%
X492000000Y88975000D03*
X492000000Y90525000D03*
%TD*%
D32*
%TO.C,C1u5*%
X323725000Y57750000D03*
X325275000Y57750000D03*
%TD*%
D35*
%TO.C,C43*%
X358000000Y88950000D03*
X358000000Y87050000D03*
%TD*%
D36*
%TO.C,R11*%
X292250000Y71775000D03*
X292250000Y70125000D03*
%TD*%
%TO.C,R15*%
X267000000Y71575000D03*
X267000000Y69925000D03*
%TD*%
D32*
%TO.C,C185*%
X8500000Y25500000D03*
X10050000Y25500000D03*
%TD*%
%TO.C,C154*%
X141500000Y25500000D03*
X143050000Y25500000D03*
%TD*%
D15*
%TO.C,H8*%
X52580000Y47500000D03*
X42420000Y47500000D03*
D33*
X48500000Y48450000D03*
X48500000Y46550000D03*
X46500000Y47500000D03*
%TD*%
D38*
%TO.C,R21*%
X387325000Y88750000D03*
X385675000Y88750000D03*
%TD*%
D31*
%TO.C,C161*%
X86500000Y69500000D03*
X84950000Y69500000D03*
%TD*%
D37*
%TO.C,C205*%
X371500000Y82275000D03*
X371500000Y80725000D03*
%TD*%
D15*
%TO.C,H97*%
X451580000Y66500000D03*
X441420000Y66500000D03*
D33*
X447500000Y67450000D03*
X447500000Y65550000D03*
X445500000Y66500000D03*
%TD*%
D34*
%TO.C,C192*%
X230500000Y92225000D03*
X230500000Y93775000D03*
%TD*%
%TO.C,C20*%
X5500000Y31725000D03*
X5500000Y33275000D03*
%TD*%
D15*
%TO.C,H49*%
X223580000Y66500000D03*
X213420000Y66500000D03*
D33*
X219500000Y67450000D03*
X219500000Y65550000D03*
X217500000Y66500000D03*
%TD*%
D15*
%TO.C,H83*%
X413580000Y66500000D03*
X403420000Y66500000D03*
D33*
X409500000Y67450000D03*
X409500000Y65550000D03*
X407500000Y66500000D03*
%TD*%
D15*
%TO.C,H38*%
X156420000Y47500000D03*
X166580000Y47500000D03*
D33*
X160500000Y46550000D03*
X160500000Y48450000D03*
X162500000Y47500000D03*
%TD*%
D31*
%TO.C,C159*%
X124500000Y69500000D03*
X122950000Y69500000D03*
%TD*%
D32*
%TO.C,C26*%
X95725000Y53750000D03*
X97275000Y53750000D03*
%TD*%
D44*
%TO.C,C7*%
X218000000Y92050000D03*
X218000000Y93950000D03*
%TD*%
D32*
%TO.C,C109*%
X323725000Y55750000D03*
X325275000Y55750000D03*
%TD*%
D34*
%TO.C,C34*%
X28500000Y39725000D03*
X28500000Y41275000D03*
%TD*%
%TO.C,C23*%
X280300000Y74725000D03*
X280300000Y76275000D03*
%TD*%
D31*
%TO.C,C57*%
X466500000Y69500000D03*
X464950000Y69500000D03*
%TD*%
D32*
%TO.C,C1u3*%
X171725000Y57750000D03*
X173275000Y57750000D03*
%TD*%
D39*
%TO.C,MUX1*%
X12015000Y42725000D03*
X13285000Y42725000D03*
X14555000Y42725000D03*
X15825000Y42725000D03*
X17095000Y42725000D03*
X18365000Y42725000D03*
X19635000Y42725000D03*
X20905000Y42725000D03*
X22175000Y42725000D03*
X23445000Y42725000D03*
X24715000Y42725000D03*
X25985000Y42725000D03*
X25985000Y33275000D03*
X24715000Y33275000D03*
X23445000Y33275000D03*
X22175000Y33275000D03*
X20905000Y33275000D03*
X19635000Y33275000D03*
X18365000Y33275000D03*
X17095000Y33275000D03*
X15825000Y33275000D03*
X14555000Y33275000D03*
X13285000Y33275000D03*
X12015000Y33275000D03*
%TD*%
M02*
