M48
; DRILL file {KiCad 8.0.6} date 2025-09-01T21:23:38+0200
; FORMAT={-:-/ absolute / inch / decimal}
; #@! TF.CreationDate,2025-09-01T21:23:38+02:00
; #@! TF.GenerationSoftware,Kicad,Pcbnew,8.0.6
; #@! TF.FileFunction,NonPlated,1,4,NPTH
FMAT,2
INCH
; #@! TA.AperFunction,NonPlated,NPTH,ComponentDrill
T1C0.0472
; #@! TA.AperFunction,NonPlated,NPTH,ComponentDrill
T2C0.0630
; #@! TA.AperFunction,NonPlated,NPTH,ComponentDrill
T3C0.0807
; #@! TA.AperFunction,NonPlated,NPTH,ComponentDrill
T4C0.0835
; #@! TA.AperFunction,NonPlated,NPTH,ComponentDrill
T5C0.1059
; #@! TA.AperFunction,NonPlated,NPTH,ComponentDrill
T6C0.1378
%
G90
G05
T1
X20.1378Y3.7551
X20.1378Y3.4795
T2
X0.174Y2.6181
X0.174Y1.8701
X0.174Y1.122
X0.174Y0.374
X0.574Y2.6181
X0.574Y1.8701
X0.574Y1.122
X0.574Y0.374
X0.922Y2.6181
X0.922Y1.8701
X0.922Y1.122
X0.922Y0.374
X1.322Y2.6181
X1.322Y1.8701
X1.322Y1.122
X1.322Y0.374
X1.6701Y2.6181
X1.6701Y1.8701
X1.6701Y1.122
X1.6701Y0.374
X2.0701Y2.6181
X2.0701Y1.8701
X2.0701Y1.122
X2.0701Y0.374
X2.4181Y2.6181
X2.4181Y1.8701
X2.4181Y1.122
X2.4181Y0.374
X2.8181Y2.6181
X2.8181Y1.8701
X2.8181Y1.122
X2.8181Y0.374
X3.1661Y2.6181
X3.1661Y1.8701
X3.1661Y1.122
X3.1661Y0.374
X3.5661Y2.6181
X3.5661Y1.8701
X3.5661Y1.122
X3.5661Y0.374
X3.9142Y2.6181
X3.9142Y1.8701
X3.9142Y1.122
X3.9142Y0.374
X4.3142Y2.6181
X4.3142Y1.8701
X4.3142Y1.122
X4.3142Y0.374
X4.6622Y2.6181
X4.6622Y1.8701
X4.6622Y1.122
X4.6622Y0.374
X5.0622Y2.6181
X5.0622Y1.8701
X5.0622Y1.122
X5.0622Y0.374
X5.4102Y2.6181
X5.4102Y1.8701
X5.4102Y1.122
X5.4102Y0.374
X5.8102Y2.6181
X5.8102Y1.8701
X5.8102Y1.122
X5.8102Y0.374
X6.1583Y2.6181
X6.1583Y1.8701
X6.1583Y1.122
X6.1583Y0.374
X6.5583Y2.6181
X6.5583Y1.8701
X6.5583Y1.122
X6.5583Y0.374
X6.9063Y2.6181
X6.9063Y1.8701
X6.9063Y1.122
X6.9063Y0.374
X7.3063Y2.6181
X7.3063Y1.8701
X7.3063Y1.122
X7.3063Y0.374
X7.6543Y2.6181
X7.6543Y1.8701
X7.6543Y1.122
X7.6543Y0.374
X8.0543Y2.6181
X8.0543Y1.8701
X8.0543Y1.122
X8.0543Y0.374
X8.4024Y2.6181
X8.4024Y1.8701
X8.4024Y1.122
X8.4024Y0.374
X8.8024Y2.6181
X8.8024Y1.8701
X8.8024Y1.122
X8.8024Y0.374
X9.1504Y2.6181
X9.1504Y1.8701
X9.1504Y1.122
X9.1504Y0.374
X9.5504Y2.6181
X9.5504Y1.8701
X9.5504Y1.122
X9.5504Y0.374
X9.8984Y2.6181
X9.8984Y1.8701
X9.8984Y1.122
X9.8984Y0.374
X10.2984Y2.6181
X10.2984Y1.8701
X10.2984Y1.122
X10.2984Y0.374
X10.6465Y2.6181
X10.6465Y1.8701
X10.6465Y1.122
X10.6465Y0.374
X11.0465Y2.6181
X11.0465Y1.8701
X11.0465Y1.122
X11.0465Y0.374
X11.3945Y2.6181
X11.3945Y1.8701
X11.3945Y1.122
X11.3945Y0.374
X11.7945Y2.6181
X11.7945Y1.8701
X11.7945Y1.122
X11.7945Y0.374
X12.1425Y2.6181
X12.1425Y1.8701
X12.1425Y1.122
X12.1425Y0.374
X12.5425Y2.6181
X12.5425Y1.8701
X12.5425Y1.122
X12.5425Y0.374
X12.8906Y2.6181
X12.8906Y1.8701
X12.8906Y1.122
X12.8906Y0.374
X13.2906Y2.6181
X13.2906Y1.8701
X13.2906Y1.122
X13.2906Y0.374
X13.6386Y2.6181
X13.6386Y1.8701
X13.6386Y1.122
X13.6386Y0.374
X14.0386Y2.6181
X14.0386Y1.8701
X14.0386Y1.122
X14.0386Y0.374
X14.3866Y2.6181
X14.3866Y1.8701
X14.3866Y1.122
X14.3866Y0.374
X14.7866Y2.6181
X14.7866Y1.8701
X14.7866Y1.122
X14.7866Y0.374
X15.1346Y2.6181
X15.1346Y1.8701
X15.1346Y1.122
X15.1346Y0.374
X15.5346Y2.6181
X15.5346Y1.8701
X15.5346Y1.122
X15.5346Y0.374
X15.8827Y2.6181
X15.8827Y1.8701
X15.8827Y1.122
X15.8827Y0.374
X16.2827Y2.6181
X16.2827Y1.8701
X16.2827Y1.122
X16.2827Y0.374
X16.6307Y2.6181
X16.6307Y1.8701
X16.6307Y1.122
X16.6307Y0.374
X17.0307Y2.6181
X17.0307Y1.8701
X17.0307Y1.122
X17.0307Y0.374
X17.3787Y2.6181
X17.3787Y1.8681
X17.3787Y1.122
X17.3787Y0.374
X17.7787Y2.6181
X17.7787Y1.8681
X17.7787Y1.122
X17.7787Y0.374
X18.1268Y2.6181
X18.1268Y1.8701
X18.1268Y1.122
X18.1268Y0.374
X18.5268Y2.6181
X18.5268Y1.8701
X18.5268Y1.122
X18.5268Y0.374
X18.8748Y2.6181
X18.8748Y1.8701
X18.8748Y1.122
X18.8748Y0.374
X19.2748Y2.6181
X19.2748Y1.8701
X19.2748Y1.122
X19.2748Y0.374
X19.6228Y2.6181
X19.6228Y1.8701
X19.6228Y1.122
X19.6228Y0.374
X20.0228Y2.6181
X20.0228Y1.8701
X20.0228Y1.122
X20.0228Y0.374
X20.3709Y2.6181
X20.3709Y1.8701
X20.3709Y1.122
X20.3709Y0.374
X20.7709Y2.6181
X20.7709Y1.8701
X20.7709Y1.122
X20.7709Y0.374
X21.1189Y2.6181
X21.1189Y1.8701
X21.1189Y1.122
X21.1189Y0.374
X21.5189Y2.6181
X21.5189Y1.8701
X21.5189Y1.122
X21.5189Y0.374
X21.8669Y2.6181
X21.8669Y1.8701
X21.8669Y1.122
X21.8669Y0.374
X22.2669Y2.6181
X22.2669Y1.8701
X22.2669Y1.122
X22.2669Y0.374
T3
X18.9173Y3.4646
T4
X0.5391Y3.7795
T5
X19.0945Y3.4646
T6
X1.4961Y3.7402
X1.4961Y2.2441
X1.4961Y0.748
X8.2283Y3.7402
X8.2283Y3.189
X8.2283Y2.1457
X8.2283Y0.748
X14.2126Y3.7402
X14.2126Y3.189
X14.2126Y2.1457
X14.2126Y0.6496
X20.9449Y3.7402
X20.9449Y2.2441
X20.9449Y0.748
M30
