M48
; DRILL file {KiCad 8.0.6} date 2025-09-01T21:23:38+0200
; FORMAT={-:-/ absolute / inch / decimal}
; #@! TF.CreationDate,2025-09-01T21:23:38+02:00
; #@! TF.GenerationSoftware,Kicad,Pcbnew,8.0.6
; #@! TF.FileFunction,Plated,1,4,PTH
FMAT,2
INCH
; #@! TA.AperFunction,Plated,PTH,ViaDrill
T1C0.0118
; #@! TA.AperFunction,Plated,PTH,ViaDrill
T2C0.0197
; #@! TA.AperFunction,Plated,PTH,ComponentDrill
T3C0.0315
; #@! TA.AperFunction,Plated,PTH,ComponentDrill
T4C0.0394
; #@! TA.AperFunction,Plated,PTH,ComponentDrill
T5C0.0429
; #@! TA.AperFunction,Plated,PTH,ComponentDrill
T6C0.0433
; #@! TA.AperFunction,Plated,PTH,ComponentDrill
T7C0.0472
; #@! TA.AperFunction,Plated,PTH,ComponentDrill
T8C0.0709
; #@! TA.AperFunction,Plated,PTH,ComponentDrill
T9C0.0823
; #@! TA.AperFunction,Plated,PTH,ComponentDrill
T10C0.0846
%
G90
G05
T1
X0.0394Y3.8976
X0.0394Y3.7106
X0.0492Y2.3425
X0.0492Y2.1555
X0.0492Y0.8366
X0.0492Y0.6496
X0.1969Y3.8976
X0.1969Y3.7106
X0.2165Y1.2008
X0.2756Y2.6181
X0.2756Y1.8701
X0.2756Y1.0039
X0.2756Y0.2559
X0.2854Y2.3425
X0.2854Y2.1555
X0.2854Y0.8366
X0.2854Y0.6496
X0.2953Y2.7362
X0.2953Y1.9882
X0.2953Y1.2008
X0.374Y1.2008
X0.4528Y1.0039
X0.4528Y0.2559
X0.4724Y2.7362
X0.4724Y1.9882
X0.4724Y1.122
X0.4724Y0.374
X0.5105Y1.6181
X0.5464Y1.6181
X0.6731Y1.7846
X0.6994Y1.7711
X0.7087Y1.7421
X0.723Y1.378
X0.7382Y1.8307
X0.748Y1.5945
X0.7667Y3.1398
X0.773Y1.75
X0.823Y1.75
X0.8455Y3.2185
X0.8671Y1.9675
X0.8858Y2.2441
X0.8858Y2.1654
X0.8858Y2.0866
X0.8868Y1.9281
X0.9242Y3.2972
X0.9646Y1.2402
X1.0197Y3.4055
X1.0236Y2.6181
X1.0236Y1.0039
X1.0236Y0.2559
X1.0433Y2.7362
X1.063Y1.6791
X1.065Y3.2067
X1.065Y3.1319
X1.1703Y1.625
X1.1713Y1.3484
X1.1722Y1.7018
X1.1791Y1.2382
X1.2008Y1.0039
X1.2008Y0.2559
X1.2205Y3.1004
X1.2205Y2.7362
X1.2205Y1.8701
X1.2205Y1.122
X1.2205Y0.374
X1.2598Y1.752
X1.3189Y1.7913
X1.6339Y1.3583
X1.7717Y2.6191
X1.7717Y1.8701
X1.7717Y1.0039
X1.7717Y0.2559
X1.7913Y2.7372
X1.7913Y1.9882
X1.8307Y1.752
X1.9488Y1.0039
X1.9488Y0.2559
X1.9685Y2.7372
X1.9685Y1.9882
X1.9685Y1.122
X1.9685Y0.374
X2.5197Y2.6181
X2.5197Y1.8701
X2.5197Y1.0039
X2.5197Y0.2559
X2.5394Y2.7362
X2.5394Y1.9882
X2.6969Y1.0039
X2.6969Y0.2559
X2.7165Y2.7362
X2.7165Y1.9882
X2.7165Y1.122
X2.7165Y0.374
X3.1299Y1.2126
X3.189Y1.7323
X3.2087Y1.2402
X3.248Y1.9488
X3.248Y1.7717
X3.2677Y2.6181
X3.2677Y1.0039
X3.2677Y0.2559
X3.2874Y2.7362
X3.2874Y1.2402
X3.3268Y0.8465
X3.3661Y1.2402
X3.4367Y1.8179
X3.4449Y1.0039
X3.4449Y0.2559
X3.4626Y2.6555
X3.4646Y2.7362
X3.4646Y1.8701
X3.4646Y1.752
X3.4646Y1.1614
X3.4646Y0.374
X3.4843Y1.0039
X3.4843Y0.8465
X3.5039Y1.9291
X3.5128Y1.5945
X3.5236Y1.752
X3.5386Y1.6181
X3.5714Y1.6176
X3.5827Y1.752
X3.622Y1.9291
X3.6417Y1.0039
X3.6538Y1.7667
X3.6614Y1.6142
X3.6652Y1.2421
X3.6654Y1.8159
X3.6909Y1.8307
X3.7146Y1.7667
X3.7152Y1.378
X3.7165Y1.8159
X3.7197Y1.6134
X3.7303Y1.8898
X3.7652Y1.752
X3.7652Y1.0039
X3.8152Y1.752
X3.8386Y1.9488
X3.8583Y1.9094
X3.878Y2.2736
X3.878Y2.1949
X3.878Y2.1161
X3.878Y1.752
X3.9173Y1.0039
X3.92Y0.8491
X3.9567Y1.2402
X3.9764Y1.8504
X4.0157Y2.6181
X4.0157Y1.0236
X4.0157Y0.2559
X4.0354Y2.7362
X4.0551Y1.6791
X4.0748Y0.8465
X4.1929Y1.0236
X4.1929Y0.2559
X4.2018Y1.8219
X4.2126Y2.7362
X4.2126Y1.8701
X4.2126Y1.122
X4.2126Y0.374
X4.311Y1.7717
X4.625Y1.3573
X4.7638Y2.6181
X4.7638Y1.8701
X4.7638Y1.0039
X4.7638Y0.2559
X4.7835Y2.7362
X4.7835Y1.9882
X4.8221Y1.7527
X4.9409Y1.0039
X4.9409Y0.2559
X4.9606Y2.7362
X4.9606Y1.9882
X4.9606Y1.122
X4.9606Y0.374
X5.5118Y1.0039
X5.5118Y0.2559
X5.5138Y2.6181
X5.5138Y1.8701
X5.5335Y2.7362
X5.5335Y1.9882
X5.689Y1.0039
X5.689Y0.2559
X5.7087Y1.122
X5.7087Y0.374
X5.7106Y2.7362
X5.7106Y1.9882
X6.122Y1.2106
X6.1831Y1.7323
X6.2008Y1.2402
X6.2421Y1.9488
X6.2421Y1.7717
X6.2598Y1.0039
X6.2598Y0.2559
X6.2618Y2.6181
X6.2795Y1.2402
X6.2815Y2.7362
X6.3189Y0.8484
X6.3583Y1.2402
X6.4308Y1.8179
X6.437Y1.1614
X6.437Y1.0039
X6.437Y0.2559
X6.4567Y2.6555
X6.4567Y0.374
X6.4587Y2.7362
X6.4587Y1.8701
X6.4587Y1.752
X6.4754Y0.8474
X6.4764Y1.0059
X6.498Y1.9291
X6.5049Y1.5945
X6.5177Y1.752
X6.5307Y1.6181
X6.5636Y1.6176
X6.5768Y1.752
X6.6161Y1.9291
X6.6339Y1.0059
X6.6459Y1.7667
X6.6545Y1.6132
X6.6573Y1.2402
X6.6575Y1.8159
X6.6831Y1.8307
X6.7067Y1.7667
X6.7073Y1.3799
X6.7087Y1.8159
X6.7128Y1.6144
X6.7224Y1.8898
X6.7573Y1.0059
X6.7593Y1.752
X6.7717Y3.8878
X6.7717Y3.7402
X6.8093Y1.752
X6.8327Y1.9488
X6.8524Y1.9094
X6.8701Y2.2736
X6.8701Y2.1949
X6.8701Y2.1161
X6.872Y1.752
X6.9094Y1.0059
X6.9131Y0.8501
X6.9488Y1.2402
X6.9705Y1.8504
X7.0079Y1.0039
X7.0079Y0.2559
X7.0098Y2.6181
X7.0295Y2.7362
X7.0472Y1.6791
X7.0679Y0.8474
X7.185Y1.0039
X7.185Y0.2559
X7.1939Y1.8199
X7.2047Y1.122
X7.2047Y0.374
X7.2067Y2.7362
X7.2067Y1.8701
X7.2441Y3.1496
X7.3051Y1.7717
X7.5689Y3.8878
X7.5689Y3.7402
X7.6171Y1.3593
X7.7559Y1.0039
X7.7559Y0.2559
X7.7579Y2.6181
X7.7579Y1.8701
X7.7776Y2.7362
X7.7776Y1.9882
X7.8152Y1.7517
X7.8543Y3.7598
X7.9331Y1.0039
X7.9331Y0.2559
X7.9528Y1.122
X7.9528Y0.374
X7.9547Y1.9882
X8.0315Y2.7362
X8.5039Y1.0039
X8.5039Y0.2559
X8.5059Y2.6181
X8.5059Y1.8701
X8.5256Y2.7362
X8.5256Y1.9882
X8.5719Y3.4931
X8.5719Y3.0709
X8.6398Y3.2067
X8.6417Y3.6309
X8.6791Y3.5847
X8.6811Y1.0039
X8.6811Y0.2559
X8.7008Y1.122
X8.7008Y0.374
X8.7028Y2.7362
X8.7028Y1.9882
X8.7598Y3.6417
X8.7598Y3.2175
X8.7867Y3.5111
X8.7867Y3.0869
X8.7992Y3.4449
X8.8071Y3.311
X8.8091Y3.7362
X8.813Y3.6024
X8.813Y3.1781
X8.9764Y3.0118
X9.0748Y3.4449
X9.0748Y3.0118
X9.1142Y1.2106
X9.1732Y3.563
X9.1732Y3.1299
X9.1752Y1.7323
X9.1929Y1.2402
X9.2343Y1.9488
X9.2343Y1.7717
X9.252Y1.0039
X9.252Y0.2559
X9.2539Y2.6181
X9.2717Y1.2402
X9.2736Y2.7362
X9.311Y0.8484
X9.3504Y1.2402
X9.4272Y1.8179
X9.4291Y1.1614
X9.4291Y1.0039
X9.4291Y0.2559
X9.4488Y2.6555
X9.4488Y0.374
X9.4508Y2.7362
X9.4508Y1.8701
X9.4508Y1.7539
X9.4675Y0.8474
X9.4685Y1.0059
X9.4902Y1.9291
X9.497Y1.5945
X9.5079Y1.752
X9.5229Y1.6181
X9.5557Y1.6176
X9.5689Y1.752
X9.6083Y1.9291
X9.626Y1.0059
X9.6381Y1.7667
X9.6467Y1.6132
X9.6494Y1.2402
X9.6752Y1.8307
X9.6989Y1.7667
X9.6994Y1.3799
X9.705Y1.6144
X9.7146Y1.8898
X9.7494Y1.0059
X9.7514Y1.752
X9.8014Y1.752
X9.8622Y3.0512
X9.8622Y2.8937
X9.8622Y2.2736
X9.8622Y2.1949
X9.8622Y2.1161
X9.8642Y1.752
X9.9016Y1.0059
X9.9052Y0.8501
X9.9409Y2.8937
X9.9409Y1.2402
X10.0Y1.0039
X10.0Y0.2559
X10.0108Y1.8986
X10.0197Y2.8937
X10.0394Y2.6969
X10.0394Y2.5787
X10.0394Y1.6791
X10.0591Y0.8465
X10.1112Y3.0118
X10.1398Y2.2638
X10.1772Y2.6969
X10.1772Y1.0039
X10.1772Y0.2559
X10.186Y1.8199
X10.1969Y3.0118
X10.1969Y1.122
X10.1969Y0.374
X10.1988Y1.8701
X10.2362Y3.0118
X10.249Y2.8839
X10.2972Y1.7717
X10.3543Y3.2185
X10.3809Y2.9035
X10.4252Y2.7835
X10.4331Y3.0118
X10.5709Y3.3199
X10.6693Y1.2992
X10.689Y2.5394
X10.6991Y1.6435
X10.748Y1.0039
X10.748Y0.2559
X10.75Y2.6181
X10.75Y1.8701
X10.7697Y2.7362
X10.7697Y1.9882
X10.8242Y3.3242
X10.878Y2.8957
X10.9252Y1.0039
X10.9252Y0.2559
X10.9449Y1.122
X10.9449Y0.374
X10.9469Y2.7362
X10.9469Y1.9882
X10.9567Y2.8957
X10.9646Y3.5512
X10.9744Y3.4843
X10.9843Y3.6417
X11.0354Y2.8957
X11.0531Y3.4252
X11.0827Y3.2185
X11.0827Y3.0118
X11.2008Y3.0118
X11.2461Y3.0118
X11.247Y2.8771
X11.3484Y3.6024
X11.3657Y2.9041
X11.3681Y3.3661
X11.378Y3.563
X11.378Y3.5138
X11.4173Y3.0118
X11.4213Y2.7756
X11.437Y3.3661
X11.4961Y2.6181
X11.4961Y1.8701
X11.4961Y1.0039
X11.4961Y0.2559
X11.5059Y3.3661
X11.5157Y1.9882
X11.5551Y3.0118
X11.564Y3.4656
X11.6437Y2.7854
X11.6537Y2.8153
X11.6732Y1.0039
X11.6732Y0.2559
X11.6929Y1.9882
X11.6929Y1.122
X11.6929Y0.374
X11.7224Y1.2106
X11.8258Y2.9085
X11.9094Y1.7323
X12.0719Y2.9085
X12.185Y1.2402
X12.2156Y1.9882
X12.2441Y2.6181
X12.2441Y1.8701
X12.2441Y1.0039
X12.2441Y0.2559
X12.2638Y2.7362
X12.2638Y1.2402
X12.2835Y3.0118
X12.3031Y0.8484
X12.3425Y1.2402
X12.3622Y2.0472
X12.4016Y1.9685
X12.4213Y1.1614
X12.4213Y1.0039
X12.4213Y0.2559
X12.439Y2.6555
X12.4409Y2.7362
X12.4409Y0.374
X12.4596Y0.8474
X12.4606Y1.0059
X12.4803Y3.2283
X12.4892Y1.5945
X12.5Y1.752
X12.515Y1.6181
X12.5478Y1.6176
X12.5591Y3.2283
X12.5591Y1.752
X12.5984Y2.3642
X12.6181Y1.0059
X12.6302Y1.7667
X12.6378Y3.2283
X12.6378Y3.0709
X12.6378Y1.6142
X12.6415Y1.2402
X12.6418Y1.8159
X12.6674Y1.8307
X12.691Y1.7667
X12.6915Y1.3799
X12.6929Y1.8159
X12.6959Y3.1191
X12.6961Y1.6134
X12.7047Y1.8917
X12.7415Y1.752
X12.7415Y1.2402
X12.7915Y1.752
X12.7915Y1.2402
X12.815Y1.9488
X12.8346Y1.9094
X12.8415Y1.2402
X12.8543Y2.2736
X12.8543Y2.1949
X12.8543Y2.1161
X12.8543Y1.752
X12.8973Y0.8501
X12.9528Y1.8504
X12.9528Y1.2402
X12.9921Y2.6181
X12.9921Y1.1614
X12.9921Y1.0039
X12.9921Y0.2559
X13.0118Y2.7362
X13.0315Y1.6791
X13.0522Y0.8474
X13.1693Y1.0039
X13.1693Y0.2559
X13.1781Y1.8219
X13.189Y2.7362
X13.189Y1.8701
X13.189Y1.122
X13.189Y0.374
X13.2874Y1.7717
X13.563Y3.7008
X13.6014Y1.3593
X13.6516Y3.6713
X13.7303Y3.5335
X13.7402Y2.6181
X13.7402Y1.8701
X13.7402Y1.0039
X13.7402Y0.2559
X13.7598Y2.7362
X13.7598Y2.6969
X13.7598Y1.9882
X13.7795Y3.5433
X13.7985Y1.7527
X13.8484Y3.6516
X13.9173Y1.0039
X13.9173Y0.2559
X13.937Y1.9882
X13.937Y1.122
X13.937Y0.374
X13.9764Y3.5039
X14.0354Y3.5039
X14.0945Y3.3661
X14.1929Y3.3661
X14.2913Y3.3661
X14.3681Y3.3642
X14.4685Y3.5827
X14.4705Y3.2087
X14.4882Y2.6181
X14.4882Y1.8701
X14.4882Y1.0039
X14.4882Y0.2559
X14.5079Y3.4843
X14.5079Y3.4252
X14.5079Y2.7362
X14.5079Y1.9882
X14.5374Y3.1102
X14.5866Y3.3071
X14.626Y3.1299
X14.6654Y1.0039
X14.6654Y0.2559
X14.685Y2.7362
X14.685Y1.9882
X14.685Y1.122
X14.685Y0.374
X14.6918Y3.4902
X14.7146Y1.2106
X14.7264Y3.5945
X14.7539Y3.376
X14.813Y3.5956
X14.8327Y3.7254
X14.8425Y3.4744
X14.9899Y3.1791
X15.128Y3.8484
X15.128Y3.4941
X15.1575Y1.7323
X15.1772Y1.2402
X15.2165Y1.9488
X15.2165Y1.7717
X15.2362Y2.6181
X15.2362Y1.0039
X15.2362Y0.2559
X15.2559Y2.7362
X15.2559Y1.2402
X15.2953Y0.8484
X15.3051Y3.8484
X15.3346Y1.2402
X15.4035Y3.4055
X15.4052Y1.8179
X15.4134Y1.1614
X15.4134Y1.0039
X15.4134Y0.2559
X15.4262Y3.5236
X15.4311Y2.6555
X15.4331Y3.1988
X15.4331Y2.7362
X15.4331Y1.8701
X15.4331Y0.374
X15.4518Y0.8474
X15.4528Y1.749
X15.4528Y1.0059
X15.4724Y1.9291
X15.4807Y1.5945
X15.4852Y3.5827
X15.5065Y1.6181
X15.5118Y1.752
X15.5394Y1.6176
X15.5512Y1.752
X15.5709Y3.7461
X15.5906Y1.9291
X15.5974Y3.7008
X15.6102Y1.0059
X15.6201Y3.5433
X15.6217Y1.7667
X15.6299Y1.6142
X15.6333Y1.8159
X15.6337Y1.2402
X15.6589Y1.8307
X15.6693Y3.5925
X15.6791Y3.7008
X15.6821Y1.7662
X15.6837Y1.3799
X15.6845Y1.8159
X15.6882Y1.6134
X15.6988Y1.8898
X15.7337Y1.752
X15.7337Y1.2402
X15.7776Y3.5433
X15.7837Y1.752
X15.7837Y1.2402
X15.8071Y3.1791
X15.8071Y1.9488
X15.8268Y1.9094
X15.8337Y3.2028
X15.8337Y1.2402
X15.8465Y2.2736
X15.8465Y2.1949
X15.8465Y2.1161
X15.8465Y1.752
X15.8895Y0.8501
X15.9449Y1.8504
X15.9455Y1.2407
X15.9843Y3.7402
X15.9843Y3.7008
X15.9843Y3.6614
X15.9843Y2.6181
X15.9843Y1.1614
X15.9843Y1.0039
X15.9843Y0.2559
X16.0039Y2.7362
X16.0236Y1.6791
X16.0443Y0.8474
X16.1122Y3.1791
X16.1614Y1.0039
X16.1614Y0.2559
X16.1703Y1.8199
X16.1811Y2.7362
X16.1811Y1.8701
X16.1811Y1.122
X16.1811Y0.374
X16.1978Y3.5335
X16.2795Y1.7717
X16.3091Y3.2392
X16.3681Y3.1299
X16.4567Y3.1299
X16.4961Y3.4941
X16.4995Y3.5335
X16.5935Y1.3593
X16.6831Y3.3366
X16.7323Y2.6181
X16.7323Y1.8701
X16.7323Y1.0039
X16.7323Y0.2559
X16.752Y2.7362
X16.752Y1.9882
X16.7702Y1.7323
X16.7756Y3.124
X16.8307Y3.5827
X16.8504Y3.2874
X16.8898Y3.2087
X16.9094Y1.0039
X16.9094Y0.2559
X16.9291Y2.7362
X16.9291Y1.9882
X16.9291Y1.122
X16.9291Y0.374
X17.2441Y3.1791
X17.2736Y3.2382
X17.4803Y2.6181
X17.4803Y1.8701
X17.4803Y1.0039
X17.4803Y0.2559
X17.5Y2.7362
X17.5Y1.9882
X17.564Y3.124
X17.6575Y1.0039
X17.6575Y0.2559
X17.6772Y2.7362
X17.6772Y1.9882
X17.6772Y1.122
X17.6772Y0.374
X17.7067Y1.2106
X18.1496Y1.7323
X18.1693Y1.2402
X18.2087Y1.9488
X18.2087Y1.7717
X18.2283Y2.6181
X18.2283Y1.0039
X18.2283Y0.2559
X18.248Y2.7362
X18.248Y1.2402
X18.2874Y0.8484
X18.2972Y3.7303
X18.3268Y1.2402
X18.4016Y1.8179
X18.4055Y1.0039
X18.4055Y0.2559
X18.4232Y2.6555
X18.4252Y2.7362
X18.4252Y1.8701
X18.4252Y1.7515
X18.4252Y1.1614
X18.4252Y0.374
X18.4439Y0.8474
X18.4449Y1.0059
X18.4646Y1.9291
X18.4734Y1.5945
X18.4843Y1.752
X18.4941Y3.4646
X18.4992Y1.6181
X18.5321Y1.6176
X18.5433Y3.563
X18.5433Y1.752
X18.563Y3.3661
X18.5827Y1.9291
X18.6024Y1.0059
X18.6145Y1.7667
X18.622Y1.6142
X18.6258Y1.2402
X18.6261Y1.8159
X18.6517Y1.8307
X18.6749Y1.7662
X18.6758Y1.3799
X18.6772Y1.8159
X18.6804Y1.6134
X18.6909Y1.8898
X18.7258Y1.752
X18.7258Y1.2402
X18.7758Y1.752
X18.7758Y1.2402
X18.7992Y1.9488
X18.8189Y1.9094
X18.8258Y1.2402
X18.8386Y2.2736
X18.8386Y2.1949
X18.8386Y2.1161
X18.8386Y1.752
X18.8816Y0.8501
X18.937Y1.8504
X18.937Y1.2402
X18.9764Y2.6181
X18.9764Y1.1614
X18.9764Y1.0039
X18.9764Y0.2559
X18.9961Y2.7362
X19.0157Y1.6791
X19.0364Y0.8474
X19.1535Y1.0039
X19.1535Y0.2559
X19.1624Y1.8199
X19.1732Y2.7362
X19.1732Y1.8701
X19.1732Y1.122
X19.1732Y0.374
X19.2717Y1.7717
X19.2815Y3.4646
X19.2815Y3.3661
X19.3012Y3.564
X19.3701Y3.4547
X19.3701Y3.2579
X19.5856Y1.3593
X19.7047Y3.3661
X19.7244Y2.6181
X19.7244Y1.8701
X19.7244Y1.0039
X19.7244Y0.2559
X19.7441Y2.7362
X19.7441Y1.9882
X19.7623Y1.7323
X19.9016Y1.0039
X19.9016Y0.2559
X19.9213Y2.7362
X19.9213Y1.9882
X19.9213Y1.122
X19.9213Y0.374
X20.1531Y3.0906
X20.4724Y2.6181
X20.4724Y1.8701
X20.4724Y1.0039
X20.4724Y0.2559
X20.4921Y3.5827
X20.4921Y2.7362
X20.4921Y1.9882
X20.6496Y1.0039
X20.6496Y0.2559
X20.6693Y2.7362
X20.6693Y1.9882
X20.6693Y1.122
X20.6693Y0.374
X20.9843Y1.2992
X21.0827Y1.2402
X21.1024Y1.7323
X21.1614Y1.2402
X21.2008Y1.9488
X21.2008Y1.7717
X21.2205Y2.6181
X21.2205Y1.0039
X21.2205Y0.2559
X21.2402Y2.7362
X21.2402Y1.2402
X21.2687Y1.625
X21.2795Y0.8484
X21.3583Y1.4016
X21.378Y1.8179
X21.3887Y1.9027
X21.3976Y1.0039
X21.3976Y0.2559
X21.4154Y2.6555
X21.4173Y2.7362
X21.4173Y1.752
X21.4173Y1.1417
X21.4173Y0.374
X21.4235Y1.9157
X21.436Y0.8474
X21.437Y1.0059
X21.4567Y1.9291
X21.4655Y1.5945
X21.4764Y1.752
X21.4913Y1.6181
X21.5242Y1.6176
X21.5354Y1.752
X21.5748Y1.9291
X21.5748Y1.063
X21.6043Y1.6043
X21.6066Y1.7667
X21.6142Y1.8159
X21.6142Y1.378
X21.6437Y1.8307
X21.667Y1.7662
X21.6693Y1.8159
X21.6831Y1.8898
X21.7179Y1.752
X21.752Y1.2402
X21.7913Y1.0039
X21.8179Y1.2402
X21.8307Y2.2736
X21.8307Y2.1949
X21.8307Y2.1161
X21.8307Y1.752
X21.8504Y1.9488
X21.9094Y1.2402
X21.9291Y1.8504
X21.9685Y3.8583
X21.9685Y3.6024
X21.9685Y2.6181
X21.9685Y1.1614
X21.9685Y1.0039
X21.9685Y0.2559
X21.9882Y2.7362
X22.0079Y1.6791
X22.0669Y1.6929
X22.0669Y1.2205
X22.1457Y1.0039
X22.1457Y0.2559
X22.1654Y2.7362
X22.1654Y2.3425
X22.1654Y2.1555
X22.1654Y1.8701
X22.1654Y1.122
X22.1654Y0.8366
X22.1654Y0.6496
X22.1654Y0.374
X22.185Y1.752
X22.3622Y3.8583
X22.3622Y3.6024
X22.4016Y2.3425
X22.4016Y2.1555
X22.4016Y0.8366
X22.4016Y0.6496
T2
X0.1181Y3.1059
X0.176Y3.0481
X0.2559Y1.4016
X0.7776Y3.0413
X0.7776Y2.313
X2.5295Y3.0217
X2.5787Y3.0709
X3.1496Y1.3976
X3.7697Y2.3425
X3.7992Y3.0315
X5.5217Y3.0217
X5.5709Y3.0709
X6.1417Y1.4016
X6.7608Y2.3327
X6.7618Y3.0315
X7.8937Y3.0709
X7.9331Y3.0315
X9.1304Y1.4016
X9.2913Y3.7687
X9.2913Y3.6909
X9.2913Y3.6122
X9.2913Y3.3455
X9.2913Y3.2677
X9.2913Y3.189
X9.3701Y3.7687
X9.3701Y3.6909
X9.3701Y3.6122
X9.3701Y3.3455
X9.3701Y3.2677
X9.3701Y3.189
X9.4488Y3.7687
X9.4488Y3.6909
X9.4488Y3.6122
X9.4488Y3.3455
X9.4488Y3.2677
X9.4488Y3.189
X9.7539Y2.3425
X9.813Y3.0315
X12.126Y1.4016
X12.7461Y3.0315
X12.7461Y2.3425
X13.878Y3.1299
X13.9498Y3.0581
X15.1181Y1.4016
X15.7382Y2.3327
X15.9449Y3.0315
X16.8701Y3.0709
X16.9193Y3.0217
X18.1068Y1.4016
X18.7303Y3.0413
X18.7303Y2.3327
X19.8622Y3.0709
X19.9114Y3.0217
X21.0236Y1.4016
X21.7224Y3.0315
X21.7224Y2.3327
T3
X12.3417Y3.4752
X12.3417Y3.3752
T4
X0.4224Y3.2677
X0.5224Y3.2677
T5
X16.9669Y3.4646
X17.0669Y3.4646
X17.1669Y3.4646
T6
X10.0705Y3.7252
X10.0705Y3.1252
X10.1705Y3.7252
X10.1705Y3.1252
X10.2705Y3.7252
X10.2705Y3.1252
X10.3705Y3.7252
X10.3705Y3.1252
X10.4705Y3.7252
X10.4705Y3.1252
X10.5705Y3.7252
X10.5705Y3.1252
X10.6705Y3.7252
X10.6705Y3.1252
X10.7705Y3.7252
X10.7705Y3.1252
X10.8705Y3.7252
X10.8705Y3.1252
X10.9705Y3.7252
X10.9705Y3.1252
X11.0705Y3.7252
X11.0705Y3.1252
X11.1705Y3.7252
X11.1705Y3.1252
X11.2705Y3.7252
X11.2705Y3.1252
X11.3705Y3.7252
X11.3705Y3.1252
X11.4705Y3.7252
X11.4705Y3.1252
X11.5705Y3.7252
X11.5705Y3.1252
X11.6705Y3.7252
X11.6705Y3.1252
X11.7225Y3.6051
X11.7705Y3.7252
X11.7705Y3.1252
X11.8225Y3.6051
X11.8705Y3.7252
X11.8705Y3.1252
X11.9225Y3.6051
X11.9705Y3.7252
X11.9705Y3.1252
X12.0225Y3.6051
X12.0705Y3.7252
X12.0705Y3.1252
X12.1225Y3.6051
X12.1705Y3.7252
X12.1705Y3.1252
X12.2705Y3.7252
X12.2705Y3.2252
X12.2705Y3.1252
X12.3705Y3.7252
X12.3705Y3.1252
T7
X1.022Y3.722
X1.022Y3.622
X1.022Y3.522
X1.222Y3.722
X1.222Y3.622
X1.222Y3.522
T8
X20.0118Y3.6961
X20.0256Y3.3811
X20.1378Y3.3465
X20.25Y3.3811
X20.2638Y3.6961
T9
X0.3973Y3.8189
X0.7831Y3.8189
T10
X0.4131Y3.5315
X0.5391Y3.5315
X0.7477Y3.5315
T3
G00X14.6526Y3.8475
M15
G01X14.6526Y3.8238
M16
G05
G00X14.6526Y3.6868
M15
G01X14.6526Y3.6553
M16
G05
G00X14.9931Y3.8475
M15
G01X14.9931Y3.8238
M16
G05
G00X14.9931Y3.6868
M15
G01X14.9931Y3.6553
M16
G05
G00X15.44Y3.8445
M15
G01X15.44Y3.8209
M16
G05
G00X15.44Y3.6839
M15
G01X15.44Y3.6524
M16
G05
G00X15.7805Y3.8445
M15
G01X15.7805Y3.8209
M16
G05
G00X15.7805Y3.6839
M15
G01X15.7805Y3.6524
M16
G05
M30
